<?xml version="1.0" encoding="UTF-8" standalone="no"?>
<!-- Created with Inkscape (http://www.inkscape.org/) -->

<svg version="1.1" id="svg2" width="666.66669" height="666.66669" viewBox="0 0 666.66669 666.66669"
   sodipodi:docname="8600853_3943614.ai" xmlns:inkscape="http://www.inkscape.org/namespaces/inkscape"
   xmlns:sodipodi="http://sodipodi.sourceforge.net/DTD/sodipodi-0.dtd" xmlns="http://www.w3.org/2000/svg"
   xmlns:svg="http://www.w3.org/2000/svg">
   <defs id="defs6">
      <clipPath clipPathUnits="userSpaceOnUse" id="clipPath18">
         <path d="M 0,500 H 500 V 0 H 0 Z" id="path16" />
      </clipPath>
      <linearGradient x1="0" y1="0" x2="1" y2="0" gradientUnits="userSpaceOnUse"
         gradientTransform="matrix(0.5559846,-36.694981,-36.694981,-0.5559846,146.68813,396.84854)" spreadMethod="pad"
         id="linearGradient46">
         <stop style="stop-opacity:1;stop-color:#ffffff" offset="0" id="stop40" />
         <stop style="stop-opacity:1;stop-color:#ffffff" offset="0.7060086" id="stop42" />
         <stop style="stop-opacity:1;stop-color:#dbf8ff" offset="1" id="stop44" />
      </linearGradient>
      <clipPath clipPathUnits="userSpaceOnUse" id="clipPath56">
         <path d="M 0,500 H 500 V 0 H 0 Z" id="path54" />
      </clipPath>
      <clipPath clipPathUnits="userSpaceOnUse" id="clipPath96">
         <path d="m 126.556,399.43 h 57.9 v -71.27 h -57.9 z" id="path94" />
      </clipPath>
      <clipPath clipPathUnits="userSpaceOnUse" id="clipPath130">
         <path d="m 374.653,439.5 h 52.284 v -3.195 h -52.284 z" id="path128" />
      </clipPath>
      <clipPath clipPathUnits="userSpaceOnUse" id="clipPath144">
         <path d="m 374.653,433.655 h 31.08 v -3.195 h -31.08 z" id="path142" />
      </clipPath>
      <clipPath clipPathUnits="userSpaceOnUse" id="clipPath158">
         <path d="m 374.653,410.817 h 52.284 v -3.195 h -52.284 z" id="path156" />
      </clipPath>
      <clipPath clipPathUnits="userSpaceOnUse" id="clipPath172">
         <path d="m 374.653,404.971 h 31.08 v -3.195 h -31.08 z" id="path170" />
      </clipPath>
      <clipPath clipPathUnits="userSpaceOnUse" id="clipPath186">
         <path d="m 374.653,383.729 h 52.284 v -3.195 h -52.284 z" id="path184" />
      </clipPath>
      <clipPath clipPathUnits="userSpaceOnUse" id="clipPath200">
         <path d="m 374.653,377.884 h 31.08 v -3.195 h -31.08 z" id="path198" />
      </clipPath>
      <clipPath clipPathUnits="userSpaceOnUse" id="clipPath246">
         <path d="M 57.1381,264.357 H 132.269 V 154.918 H 57.1381 Z" id="path244" />
      </clipPath>
      <clipPath clipPathUnits="userSpaceOnUse" id="clipPath266">
         <path d="M 42.7623,204.263 H 127.343 V 147.117 H 42.7623 Z" id="path264" />
      </clipPath>
      <clipPath clipPathUnits="userSpaceOnUse" id="clipPath306">
         <path d="M 72.9746,78.0228 H 405.976 V 62.1259 H 72.9746 Z" id="path304" />
      </clipPath>
      <clipPath clipPathUnits="userSpaceOnUse" id="clipPath326">
         <path d="m 355.623,204.12 h 89.639 v -93.071 h -89.639 z" id="path324" />
      </clipPath>
      <clipPath clipPathUnits="userSpaceOnUse" id="clipPath346">
         <path d="m 357.747,143.958 h 93.742 V 96.5199 h -93.742 z" id="path344" />
      </clipPath>
      <clipPath clipPathUnits="userSpaceOnUse" id="clipPath386">
         <path d="M 90.2377,111.947 H 359.138 V 89.6997 H 90.2377 Z" id="path384" />
      </clipPath>
      <clipPath clipPathUnits="userSpaceOnUse" id="clipPath442">
         <path d="M 127.29,343.406 H 377.206 V 176.34 H 127.29 Z" id="path440" />
      </clipPath>
      <clipPath clipPathUnits="userSpaceOnUse" id="clipPath736">
         <path d="m 288.364,284.173 h 45.993 v -36.546 h -45.993 z" id="path734" />
      </clipPath>
      <clipPath clipPathUnits="userSpaceOnUse" id="clipPath752">
         <path d="m 296.66,266.927 h 42.9 v -32.164 h -42.9 z" id="path750" />
      </clipPath>
      <clipPath clipPathUnits="userSpaceOnUse" id="clipPath850">
         <path d="m 184.456,341.694 h 7.667 V 309.91 h -7.667 z" id="path848" />
      </clipPath>
      <clipPath clipPathUnits="userSpaceOnUse" id="clipPath866">
         <path d="M 203.995,337.765 H 215.82 V 325.488 H 203.995 Z" id="path864" />
      </clipPath>
      <clipPath clipPathUnits="userSpaceOnUse" id="clipPath882">
         <path d="m 120.497,253.468 h 75.381 v -78.841 h -75.381 z" id="path880" />
      </clipPath>
   </defs>
   <sodipodi:namedview id="namedview4" pagecolor="#ffffff" bordercolor="#000000" borderopacity="0.25"
      inkscape:showpageshadow="2" inkscape:pageopacity="0.0" inkscape:pagecheckerboard="0"
      inkscape:deskcolor="#d1d1d1" />
   <g id="g8" inkscape:groupmode="layer" inkscape:label="8600853_3943614"
      transform="matrix(1.3333333,0,0,-1.3333333,0,666.66667)">
      <g id="g12">
         <g id="g14" clip-path="url(#clipPath18)">
            <g id="g20" transform="translate(403.417,306.3022)">
               <path
                  d="m 0,0 c 0,-84.73 -68.688,-153.417 -153.417,-153.417 -84.729,0 -153.416,68.687 -153.416,153.417 0,84.729 68.687,153.417 153.416,153.417 C -68.688,153.417 0,84.729 0,0"
                  style="fill:#caffff;fill-opacity:1;fill-rule:nonzero;stroke:none" id="path22" />
            </g>
            <g id="g24" transform="translate(184.4561,365.4526)">
               <path
                  d="m 0,0 c 0,-20.598 -16.694,-37.292 -37.292,-37.292 -7.625,0 -14.706,2.283 -20.608,6.206 -10.055,6.676 -16.684,18.103 -16.684,31.086 0,20.598 16.693,37.292 37.292,37.292 5.488,0 10.699,-1.188 15.396,-3.314 C -8.978,28.121 0,15.11 0,0"
                  style="fill:#ff3363;fill-opacity:1;fill-rule:nonzero;stroke:none" id="path26" />
            </g>
         </g>
      </g>
      <g id="g28">
         <g id="g30">
            <g id="g36">
               <g id="g38">
                  <path
                     d="m 114.183,365.454 c 0,-18.215 14.765,-32.981 32.98,-32.981 v 0 c 18.216,0 32.982,14.766 32.982,32.981 v 0 c 0,18.215 -14.766,32.981 -32.982,32.981 v 0 c -18.215,0 -32.98,-14.766 -32.98,-32.981"
                     style="fill:url(#linearGradient46);stroke:none" id="path48" />
               </g>
            </g>
         </g>
      </g>
      <g id="g50">
         <g id="g52" clip-path="url(#clipPath56)">
            <path d="m 148.66,387.117 h -2.993 v 9.479 h 2.993 z"
               style="fill:#000000;fill-opacity:1;fill-rule:nonzero;stroke:none" id="path58" />
            <path d="m 148.66,332.756 h -2.993 v 9.479 h 2.993 z"
               style="fill:#000000;fill-opacity:1;fill-rule:nonzero;stroke:none" id="path60" />
            <path d="m 125.442,362.461 h -9.479 v 2.993 h 9.479 z"
               style="fill:#000000;fill-opacity:1;fill-rule:nonzero;stroke:none" id="path62" />
            <path d="m 178.365,362.461 h -9.479 v 2.993 h 9.479 z"
               style="fill:#000000;fill-opacity:1;fill-rule:nonzero;stroke:none" id="path64" />
            <g id="g66" transform="translate(132.333,381.2837)">
               <path d="m 0,0 -1.058,-1.058 -6.703,6.703 1.058,1.058 z"
                  style="fill:#000000;fill-opacity:1;fill-rule:nonzero;stroke:none" id="path68" />
            </g>
            <g id="g70" transform="translate(169.7554,342.4238)">
               <path d="m 0,0 -1.058,-1.058 -6.703,6.703 1.058,1.058 z"
                  style="fill:#000000;fill-opacity:1;fill-rule:nonzero;stroke:none" id="path72" />
            </g>
            <g id="g74" transform="translate(131.2749,349.1265)">
               <path d="m 0,0 1.058,-1.058 -6.703,-6.703 -1.058,1.058 z"
                  style="fill:#000000;fill-opacity:1;fill-rule:nonzero;stroke:none" id="path76" />
            </g>
            <g id="g78" transform="translate(168.6973,387.9863)">
               <path d="m 0,0 1.058,-1.058 -6.703,-6.703 -1.058,1.058 z"
                  style="fill:#000000;fill-opacity:1;fill-rule:nonzero;stroke:none" id="path80" />
            </g>
            <g id="g82" transform="translate(149.5742,364.7012)">
               <path d="m 0,0 -2.506,-1.636 -16.649,25.509 2.506,1.636 z"
                  style="fill:#14d8d2;fill-opacity:1;fill-rule:nonzero;stroke:none" id="path84" />
            </g>
            <g id="g86" transform="translate(148.272,361.9072)">
               <path d="m 0,0 -1.981,2.243 16.907,14.932 1.981,-2.244 z"
                  style="fill:#14d8d2;fill-opacity:1;fill-rule:nonzero;stroke:none" id="path88" />
            </g>
            <g id="g90">
               <g id="g92" />
               <g id="g104">
                  <g clip-path="url(#clipPath96)" opacity="0.429993" id="g102">
                     <g transform="translate(184.4561,365.4526)" id="g100">
                        <path
                           d="m 0,0 c 0,-20.598 -16.694,-37.292 -37.292,-37.292 -7.625,0 -14.706,2.283 -20.608,6.206 l 36.004,65.064 C -8.978,28.121 0,15.11 0,0"
                           style="fill:#000000;fill-opacity:1;fill-rule:nonzero;stroke:none" id="path98" />
                     </g>
                  </g>
               </g>
            </g>
            <path d="m 351.285,423.611 h 16.892 v 16.892 h -16.892 z m 19.242,-2.351 h -21.594 v 21.594 h 21.594 z"
               style="fill:#14d8d2;fill-opacity:1;fill-rule:nonzero;stroke:none" id="path106" />
            <path d="m 351.285,396.211 h 16.892 v 16.892 h -16.892 z m 19.242,-2.351 h -21.594 v 21.594 h 21.594 z"
               style="fill:#14d8d2;fill-opacity:1;fill-rule:nonzero;stroke:none" id="path108" />
            <path d="m 351.285,369.839 h 16.892 v 16.892 h -16.892 z m 19.242,-2.351 h -21.594 v 21.594 h 21.594 z"
               style="fill:#14d8d2;fill-opacity:1;fill-rule:nonzero;stroke:none" id="path110" />
            <g id="g112" transform="translate(354.0098,439.7539)">
               <path
                  d="M 0,0 6.331,-6.746 2.316,-7.023 21.425,10.086 6.615,-10.855 5.188,-12.874 2.601,-11.133 -5.076,-5.97 Z"
                  style="fill:#ff3363;fill-opacity:1;fill-rule:nonzero;stroke:none" id="path114" />
            </g>
            <g id="g116" transform="translate(354.0098,411.9209)">
               <path
                  d="m 0,0 6.331,-6.746 -4.015,-0.277 19.109,17.108 -14.81,-20.941 -1.427,-2.018 -2.587,1.74 -7.677,5.163 z"
                  style="fill:#ff3363;fill-opacity:1;fill-rule:nonzero;stroke:none" id="path118" />
            </g>
            <g id="g120" transform="translate(354.0098,385.6338)">
               <path
                  d="M 0,0 6.331,-6.746 2.316,-7.023 21.425,10.086 6.615,-10.855 5.188,-12.874 2.601,-11.133 -5.076,-5.97 Z"
                  style="fill:#ff3363;fill-opacity:1;fill-rule:nonzero;stroke:none" id="path122" />
            </g>
            <g id="g124">
               <g id="g126" />
               <g id="g136">
                  <g clip-path="url(#clipPath130)" opacity="0.429993" id="g134">
                     <path d="m 426.937,436.305 h -52.283 v 3.195 h 52.283 z"
                        style="fill:#484854;fill-opacity:1;fill-rule:nonzero;stroke:none" id="path132" />
                  </g>
               </g>
            </g>
            <g id="g138">
               <g id="g140" />
               <g id="g150">
                  <g clip-path="url(#clipPath144)" opacity="0.429993" id="g148">
                     <path d="m 405.733,430.459 h -31.08 v 3.195 h 31.08 z"
                        style="fill:#484854;fill-opacity:1;fill-rule:nonzero;stroke:none" id="path146" />
                  </g>
               </g>
            </g>
            <g id="g152">
               <g id="g154" />
               <g id="g164">
                  <g clip-path="url(#clipPath158)" opacity="0.429993" id="g162">
                     <path d="m 426.937,407.622 h -52.283 v 3.195 h 52.283 z"
                        style="fill:#484854;fill-opacity:1;fill-rule:nonzero;stroke:none" id="path160" />
                  </g>
               </g>
            </g>
            <g id="g166">
               <g id="g168" />
               <g id="g178">
                  <g clip-path="url(#clipPath172)" opacity="0.429993" id="g176">
                     <path d="m 405.733,401.776 h -31.08 v 3.195 h 31.08 z"
                        style="fill:#484854;fill-opacity:1;fill-rule:nonzero;stroke:none" id="path174" />
                  </g>
               </g>
            </g>
            <g id="g180">
               <g id="g182" />
               <g id="g192">
                  <g clip-path="url(#clipPath186)" opacity="0.429993" id="g190">
                     <path d="m 426.937,380.534 h -52.283 v 3.195 h 52.283 z"
                        style="fill:#484854;fill-opacity:1;fill-rule:nonzero;stroke:none" id="path188" />
                  </g>
               </g>
            </g>
            <g id="g194">
               <g id="g196" />
               <g id="g206">
                  <g clip-path="url(#clipPath200)" opacity="0.429993" id="g204">
                     <path d="m 405.733,374.689 h -31.08 v 3.195 h 31.08 z"
                        style="fill:#484854;fill-opacity:1;fill-rule:nonzero;stroke:none" id="path202" />
                  </g>
               </g>
            </g>
            <g id="g208" transform="translate(82.0635,262.2954)">
               <path
                  d="M 0,0 C -0.058,0 -0.117,0.01 -0.174,0.031 -0.433,0.128 -0.565,0.416 -0.469,0.674 -0.019,1.883 0.324,3.151 0.55,4.442 0.598,4.714 0.853,4.894 1.129,4.849 1.401,4.801 1.583,4.542 1.536,4.27 1.299,2.918 0.94,1.591 0.469,0.326 0.394,0.125 0.203,0 0,0"
                  style="fill:#000000;fill-opacity:1;fill-rule:nonzero;stroke:none" id="path210" />
            </g>
            <g id="g212" transform="translate(140.1104,443.4233)">
               <path
                  d="m 0,0 c -2.573,0.589 -5.193,0.934 -7.832,1.035 -0.275,0.01 -0.491,0.243 -0.48,0.519 0.011,0.276 0.265,0.496 0.519,0.48 2.7,-0.103 5.382,-0.456 7.972,-1.05 L 0.121,0.485 Z m -23.592,-1.235 c -0.209,0 -0.404,0.132 -0.474,0.341 -0.088,0.262 0.053,0.545 0.315,0.633 2.551,0.856 5.201,1.485 7.875,1.869 0.275,0.044 0.526,-0.15 0.566,-0.423 0.039,-0.274 -0.15,-0.527 -0.424,-0.567 -2.615,-0.376 -5.205,-0.991 -7.699,-1.827 -0.053,-0.018 -0.107,-0.026 -0.159,-0.026 M 14.84,-6.166 c -0.089,0 -0.179,0.024 -0.261,0.075 -2.313,1.422 -4.683,2.648 -7.04,3.643 -0.255,0.108 -0.374,0.401 -0.267,0.655 0.108,0.254 0.401,0.374 0.655,0.266 2.405,-1.015 4.819,-2.264 7.176,-3.713 0.235,-0.144 0.309,-0.452 0.164,-0.687 -0.095,-0.154 -0.259,-0.239 -0.427,-0.239 M -37.494,-9.02 c -0.143,0 -0.284,0.061 -0.383,0.178 -0.178,0.212 -0.151,0.527 0.061,0.705 1.633,1.373 3.372,2.628 5.167,3.731 0.491,0.302 0.989,0.593 1.493,0.874 0.241,0.134 0.546,0.049 0.68,-0.193 0.135,-0.241 0.048,-0.545 -0.193,-0.68 -0.491,-0.274 -0.977,-0.559 -1.457,-0.854 -1.753,-1.076 -3.451,-2.303 -5.047,-3.644 -0.094,-0.078 -0.208,-0.117 -0.321,-0.117 m 64.877,-7.066 c -0.125,0 -0.25,0.046 -0.347,0.14 -1.993,1.925 -4.001,3.698 -5.969,5.27 -0.215,0.173 -0.251,0.487 -0.078,0.703 0.172,0.215 0.486,0.25 0.702,0.078 1.993,-1.591 4.024,-3.385 6.039,-5.332 0.199,-0.191 0.205,-0.508 0.013,-0.706 -0.098,-0.102 -0.229,-0.153 -0.36,-0.153 m -75.023,-5.231 c -0.083,0 -0.166,0.021 -0.243,0.064 -0.242,0.134 -0.328,0.439 -0.193,0.68 1.313,2.351 2.849,4.599 4.566,6.682 0.176,0.212 0.491,0.244 0.704,0.068 0.213,-0.176 0.243,-0.491 0.068,-0.704 -1.679,-2.036 -3.181,-4.235 -4.465,-6.534 -0.091,-0.164 -0.262,-0.256 -0.437,-0.256 m 85.8,-6.625 c -0.145,0 -0.288,0.063 -0.388,0.183 -1.825,2.226 -3.526,4.21 -5.202,6.067 -0.185,0.205 -0.169,0.521 0.036,0.706 0.205,0.185 0.521,0.169 0.707,-0.036 1.686,-1.869 3.397,-3.865 5.233,-6.103 0.175,-0.213 0.144,-0.528 -0.07,-0.704 -0.093,-0.076 -0.205,-0.113 -0.316,-0.113 m -90.912,-8.475 c -0.027,0 -0.055,0.002 -0.082,0.007 -0.272,0.045 -0.457,0.302 -0.413,0.575 0.281,1.711 0.585,3.215 0.931,4.596 0.272,1.09 0.594,2.189 0.956,3.266 0.089,0.262 0.373,0.401 0.633,0.315 0.262,-0.088 0.403,-0.371 0.315,-0.633 -0.354,-1.053 -0.668,-2.126 -0.934,-3.19 -0.339,-1.355 -0.637,-2.832 -0.914,-4.517 -0.04,-0.245 -0.252,-0.419 -0.492,-0.419 m -2.462,-15.831 c -0.039,0 -0.079,0.004 -0.119,0.014 -0.268,0.066 -0.433,0.337 -0.367,0.605 0.643,2.633 1.039,5.322 1.37,7.837 0.036,0.273 0.277,0.47 0.561,0.43 0.274,-0.036 0.467,-0.287 0.431,-0.561 -0.335,-2.542 -0.736,-5.264 -1.391,-7.944 -0.056,-0.228 -0.26,-0.381 -0.485,-0.381 m -7.399,-14.007 c -0.119,0 -0.238,0.042 -0.333,0.127 -0.206,0.183 -0.224,0.499 -0.04,0.705 1.897,2.129 3.387,4.228 4.553,6.417 0.131,0.242 0.432,0.334 0.677,0.206 0.244,-0.13 0.336,-0.433 0.206,-0.677 -1.204,-2.26 -2.739,-4.422 -4.69,-6.611 -0.099,-0.111 -0.236,-0.167 -0.373,-0.167 m -12.03,-10.567 c -0.149,0 -0.297,0.067 -0.396,0.194 -0.169,0.218 -0.129,0.532 0.089,0.701 2.15,1.663 4.244,3.297 6.24,4.997 0.211,0.18 0.526,0.154 0.704,-0.056 0.179,-0.21 0.154,-0.525 -0.056,-0.704 -2.012,-1.716 -4.117,-3.357 -6.275,-5.028 -0.092,-0.07 -0.199,-0.104 -0.306,-0.104 m -12.168,-10.413 c -0.122,0 -0.245,0.045 -0.341,0.135 -0.202,0.188 -0.212,0.505 -0.024,0.706 1.624,1.739 3.506,3.483 5.922,5.487 0.212,0.178 0.528,0.148 0.704,-0.065 0.176,-0.213 0.147,-0.528 -0.065,-0.704 -2.384,-1.977 -4.236,-3.693 -5.83,-5.4 -0.098,-0.106 -0.232,-0.159 -0.366,-0.159 m -7.476,-13.9 c -0.029,0 -0.059,0.002 -0.089,0.008 -0.272,0.048 -0.453,0.308 -0.404,0.58 0.099,0.55 0.218,1.099 0.358,1.647 0.525,2.057 1.335,4.076 2.405,5.999 0.136,0.242 0.438,0.327 0.681,0.194 0.241,-0.134 0.328,-0.439 0.193,-0.68 -1.029,-1.849 -1.806,-3.787 -2.311,-5.76 -0.133,-0.524 -0.247,-1.05 -0.341,-1.577 -0.044,-0.241 -0.255,-0.411 -0.492,-0.411 m 2.042,-15.684 c -0.197,0 -0.385,0.118 -0.463,0.312 -1.072,2.646 -1.801,5.278 -2.167,7.821 -0.04,0.273 0.15,0.527 0.423,0.566 0.28,0.043 0.527,-0.15 0.567,-0.423 0.354,-2.464 1.062,-5.017 2.103,-7.588 0.104,-0.256 -0.019,-0.548 -0.275,-0.651 -0.062,-0.025 -0.126,-0.037 -0.188,-0.037 m 8.445,-13.547 c -0.143,0 -0.285,0.06 -0.384,0.179 -0.527,0.628 -1.045,1.265 -1.553,1.91 -1.174,1.492 -2.265,3.035 -3.245,4.585 -0.148,0.233 -0.078,0.542 0.155,0.69 0.235,0.147 0.543,0.077 0.69,-0.156 0.961,-1.521 2.033,-3.035 3.186,-4.501 0.501,-0.637 1.013,-1.265 1.534,-1.886 0.177,-0.211 0.149,-0.527 -0.062,-0.704 -0.094,-0.079 -0.208,-0.117 -0.321,-0.117 m 10.923,-11.726 c -0.132,0 -0.265,0.052 -0.363,0.155 -0.911,0.958 -1.831,1.911 -2.751,2.863 -0.937,0.97 -1.873,1.939 -2.802,2.915 -0.19,0.201 -0.182,0.517 0.018,0.707 0.2,0.191 0.517,0.182 0.707,-0.017 0.926,-0.975 1.861,-1.943 2.796,-2.91 0.922,-0.954 1.843,-1.908 2.757,-2.869 0.19,-0.2 0.182,-0.516 -0.018,-0.707 -0.096,-0.091 -0.22,-0.137 -0.344,-0.137 m 10.147,-12.376 c -0.166,0 -0.328,0.082 -0.423,0.233 -0.562,0.887 -1.163,1.77 -1.787,2.624 -0.895,1.225 -1.86,2.452 -2.95,3.751 -0.177,0.212 -0.149,0.527 0.062,0.705 0.213,0.176 0.527,0.149 0.705,-0.062 1.104,-1.317 2.082,-2.561 2.991,-3.804 0.636,-0.872 1.25,-1.773 1.823,-2.679 0.148,-0.234 0.079,-0.543 -0.154,-0.69 -0.083,-0.053 -0.176,-0.078 -0.267,-0.078 m 5.785,-14.824 c -0.244,0 -0.458,0.179 -0.494,0.428 -0.359,2.473 -1.063,5.029 -2.091,7.595 -0.102,0.256 0.022,0.547 0.279,0.65 0.256,0.102 0.547,-0.021 0.65,-0.278 1.057,-2.64 1.781,-5.272 2.151,-7.824 0.04,-0.273 -0.149,-0.527 -0.423,-0.566 -0.024,-0.004 -0.048,-0.005 -0.072,-0.005"
                  style="fill:#000000;fill-opacity:1;fill-rule:nonzero;stroke:none" id="path214" />
            </g>
            <g id="g216" transform="translate(185.7603,405.9536)">
               <path
                  d="m 0,0 c -0.15,0 -0.299,0.067 -0.397,0.196 -0.806,1.053 -1.617,2.11 -2.437,3.169 -0.169,0.218 -0.129,0.532 0.089,0.701 0.218,0.17 0.533,0.13 0.701,-0.089 C -1.222,2.917 -0.41,1.858 0.396,0.804 0.564,0.584 0.522,0.271 0.303,0.103 0.212,0.034 0.106,0 0,0"
                  style="fill:#000000;fill-opacity:1;fill-rule:nonzero;stroke:none" id="path218" />
            </g>
            <g id="g220" transform="translate(432.6533,389.5117)">
               <path
                  d="m 0,0 c -0.064,0 -0.129,0.012 -0.192,0.039 -1.212,0.504 -2.465,0.906 -3.725,1.195 -0.27,0.061 -0.437,0.329 -0.376,0.599 0.061,0.268 0.326,0.439 0.599,0.375 C -2.38,1.907 -1.072,1.488 0.192,0.961 0.447,0.855 0.567,0.563 0.462,0.308 0.382,0.116 0.195,0 0,0"
                  style="fill:#000000;fill-opacity:1;fill-rule:nonzero;stroke:none" id="path222" />
            </g>
            <g id="g224" transform="translate(444.8691,379.1636)">
               <path
                  d="m 0,0 c -0.162,0 -0.321,0.079 -0.417,0.224 -1.493,2.26 -3.26,4.271 -5.251,5.979 -0.21,0.179 -0.234,0.495 -0.055,0.705 0.181,0.209 0.497,0.233 0.705,0.053 C -2.956,5.194 -1.127,3.113 0.417,0.776 0.569,0.545 0.506,0.235 0.275,0.083 0.19,0.027 0.095,0 0,0 m 4.93,-15.26 c -0.271,0 -0.493,0.215 -0.5,0.487 -0.071,2.61 -0.535,5.244 -1.38,7.828 -0.086,0.262 0.057,0.545 0.32,0.631 0.263,0.086 0.544,-0.058 0.631,-0.32 0.874,-2.676 1.354,-5.405 1.429,-8.112 0.007,-0.276 -0.21,-0.506 -0.487,-0.514 z M 0.368,-30.582 c -0.092,0 -0.183,0.025 -0.265,0.077 -0.235,0.147 -0.305,0.455 -0.159,0.689 1.348,2.145 2.366,4.191 3.111,6.258 0.113,0.311 0.217,0.622 0.315,0.935 0.082,0.264 0.359,0.41 0.626,0.33 0.264,-0.082 0.411,-0.363 0.329,-0.626 -0.101,-0.328 -0.212,-0.654 -0.33,-0.979 -0.769,-2.134 -1.817,-4.244 -3.203,-6.45 -0.096,-0.151 -0.258,-0.234 -0.424,-0.234 M -9.679,-43.327 c -0.113,0 -0.226,0.037 -0.319,0.115 -0.213,0.177 -0.242,0.492 -0.065,0.704 0.777,0.936 1.568,1.865 2.36,2.796 0.964,1.132 1.929,2.266 2.87,3.414 0.177,0.213 0.492,0.243 0.704,0.069 0.213,-0.175 0.244,-0.491 0.069,-0.704 -0.946,-1.152 -1.915,-2.29 -2.881,-3.427 -0.789,-0.928 -1.579,-1.854 -2.353,-2.786 -0.099,-0.12 -0.241,-0.181 -0.385,-0.181 m -8.475,-13.758 c -0.056,0 -0.112,0.009 -0.167,0.029 -0.26,0.092 -0.397,0.377 -0.305,0.638 0.835,2.359 2.073,4.832 3.68,7.348 0.149,0.234 0.46,0.299 0.691,0.153 0.233,-0.149 0.301,-0.458 0.151,-0.691 -1.565,-2.453 -2.77,-4.856 -3.579,-7.143 -0.073,-0.206 -0.265,-0.334 -0.471,-0.334 m 0.62,-15.776 c -0.187,0 -0.366,0.105 -0.452,0.285 -0.927,1.955 -1.521,3.866 -1.814,5.841 -0.106,0.712 -0.172,1.443 -0.194,2.173 -0.008,0.276 0.209,0.507 0.484,0.516 0.306,-0.009 0.507,-0.209 0.516,-0.485 0.02,-0.691 0.083,-1.384 0.182,-2.057 0.28,-1.876 0.845,-3.695 1.73,-5.559 0.118,-0.249 0.012,-0.548 -0.238,-0.666 -0.069,-0.033 -0.142,-0.048 -0.214,-0.048 m 9.777,-12.894 c -0.137,0 -0.273,0.056 -0.372,0.166 l -0.966,1.073 c -1.478,1.641 -3.008,3.339 -4.397,5.061 -0.174,0.215 -0.141,0.53 0.074,0.703 0.215,0.173 0.53,0.14 0.703,-0.075 1.373,-1.7 2.894,-3.388 4.363,-5.02 l 0.967,-1.074 c 0.185,-0.206 0.167,-0.522 -0.038,-0.706 -0.096,-0.086 -0.215,-0.128 -0.334,-0.128 M 1.384,-99.08 c -0.194,0 -0.378,0.113 -0.46,0.303 -1.053,2.457 -2.355,4.779 -3.869,6.902 l 0.357,0.36 0.408,0.289 -0.408,-0.289 0.455,0.223 c 1.558,-2.184 2.895,-4.569 3.977,-7.091 0.108,-0.254 -0.009,-0.548 -0.263,-0.657 -0.064,-0.027 -0.131,-0.04 -0.197,-0.04 m 3.243,-15.804 c -0.275,0 -0.499,0.223 -0.5,0.498 -0.011,2.672 -0.286,5.353 -0.82,7.967 -0.055,0.271 0.12,0.535 0.39,0.59 0.266,0.056 0.534,-0.119 0.59,-0.39 0.546,-2.679 0.829,-5.425 0.84,-8.163 0.001,-0.276 -0.222,-0.501 -0.498,-0.502 z m -3.192,-15.808 c -0.067,0 -0.135,0.013 -0.2,0.042 -0.253,0.109 -0.369,0.404 -0.259,0.657 1.052,2.42 1.854,4.99 2.382,7.637 0.055,0.271 0.321,0.445 0.588,0.392 0.272,-0.055 0.447,-0.318 0.393,-0.589 -0.543,-2.716 -1.365,-5.353 -2.445,-7.838 -0.082,-0.189 -0.267,-0.301 -0.459,-0.301 m -9.468,-13.046 c -0.137,0 -0.273,0.056 -0.371,0.165 -0.186,0.205 -0.169,0.522 0.036,0.706 2.001,1.806 3.806,3.805 5.363,5.942 0.165,0.223 0.476,0.27 0.699,0.109 0.223,-0.163 0.272,-0.476 0.11,-0.699 -1.6,-2.193 -3.45,-4.242 -5.502,-6.094 -0.096,-0.086 -0.216,-0.129 -0.335,-0.129 m -13.872,-8.242 c -0.207,0 -0.4,0.129 -0.472,0.335 -0.092,0.261 0.046,0.546 0.307,0.637 2.506,0.878 4.947,2.017 7.255,3.389 0.236,0.142 0.544,0.064 0.685,-0.173 0.142,-0.238 0.064,-0.545 -0.174,-0.686 -2.365,-1.406 -4.867,-2.574 -7.436,-3.474 -0.055,-0.019 -0.111,-0.028 -0.165,-0.028"
                  style="fill:#000000;fill-opacity:1;fill-rule:nonzero;stroke:none" id="path226" />
            </g>
            <g id="g228" transform="translate(411.0322,225.0166)">
               <path
                  d="M 0,0 C -0.272,0 -0.495,0.219 -0.5,0.491 -0.505,0.768 -0.284,0.995 -0.009,1 1.296,1.021 2.619,1.117 3.926,1.283 4.196,1.323 4.45,1.124 4.485,0.851 4.521,0.576 4.326,0.326 4.053,0.291 2.71,0.12 1.349,0.022 0.009,0 Z"
                  style="fill:#000000;fill-opacity:1;fill-rule:nonzero;stroke:none" id="path230" />
            </g>
            <g id="g232" transform="translate(433.9365,65.0146)">
               <path
                  d="m 0,0 c 0,-15.526 -88.051,-28.112 -196.667,-28.112 -108.615,0 -196.666,12.586 -196.666,28.112 0,15.526 88.051,28.113 196.666,28.113 C -88.051,28.113 0,15.526 0,0"
                  style="fill:#dcf0f9;fill-opacity:1;fill-rule:nonzero;stroke:none" id="path234" />
            </g>
            <g id="g236" transform="translate(43.4849,228.2549)">
               <path
                  d="m 0,0 c -0.25,-2.263 1.572,-3.868 3.409,-4.79 2.2,-1.112 4.627,-1.83 6.966,-2.558 5.018,-1.547 10.198,-2.77 14.949,-5.079 2.319,-1.128 4.659,-2.514 6.499,-4.341 0.382,-0.374 0.917,-0.95 0.877,-1.534 -0.046,-0.65 -0.763,-0.788 -1.296,-0.815 -1.173,-0.069 -2.376,0.029 -3.559,0.048 -4.748,0.076 -9.814,-0.053 -14.034,-2.519 -1.798,-1.047 -3.515,-2.863 -3.706,-5.025 -0.206,-2.499 2.063,-3.645 4.037,-4.454 4.922,-2.035 10.25,-2.791 15.46,-3.747 5.094,-0.923 10.336,-2.039 14.786,-4.829 1.02,-0.642 2.202,-1.367 2.947,-2.327 0.725,-0.927 0.467,-1.908 -0.562,-2.403 -0.903,-0.438 -1.978,-0.527 -2.966,-0.569 -1.111,-0.044 -2.209,-0.158 -3.296,-0.396 -4.281,-0.946 -8.658,-3.709 -10.351,-7.913 -0.808,-2.012 -0.793,-4.444 0.898,-6.003 1.763,-1.612 4.419,-1.965 6.708,-2.183 5.286,-0.511 10.566,0.438 15.827,0.911 2.584,0.237 5.199,0.354 7.797,0.128 1.194,-0.097 2.524,-0.174 3.624,-0.712 0.76,-0.361 1.811,-1.217 1.038,-2.097 -0.391,-0.462 -1.042,-0.689 -1.577,-0.942 l -2.054,-0.972 c -1.362,-0.641 -2.714,-1.283 -4.078,-1.933 -2.149,-1.017 -4.551,-2.339 -5.129,-4.861 -1.243,-5.402 6.937,-6.252 10.52,-6.145 5.182,0.142 10.191,1.723 15.349,2.106 5.588,0.412 11.155,-0.988 15.842,-4.075 0.272,-0.181 0.571,-0.019 0.684,0.249 0.057,0.129 0.083,0.256 0.093,0.385 0.174,0.198 0.213,0.51 -0.083,0.667 -0.077,0.036 -0.135,0.077 -0.212,0.112 -0.16,0.176 -0.377,0.306 -0.627,0.37 -3.209,2.072 -4.94,5.729 -5.475,9.47 -0.756,5.257 1.008,10.369 3.075,15.133 1.192,2.749 2.504,5.444 3.61,8.229 1.069,2.7 1.938,5.48 2.555,8.314 0.625,2.871 1.008,5.801 1.092,8.741 0.08,2.525 0.178,5.442 -0.962,7.768 -0.974,1.998 -3.256,3.439 -5.467,2.566 -1.111,-0.44 -2.018,-1.329 -2.783,-2.219 -0.8,-0.921 -1.486,-1.923 -2.091,-2.989 -1.246,-2.209 -2.124,-4.592 -3.062,-6.944 -0.908,-2.262 -1.833,-4.729 -3.441,-6.607 -0.69,-0.803 -1.561,-1.529 -2.62,-1.765 -1.175,-0.256 -2.304,0.231 -3.122,1.074 -1.698,1.787 -2.117,4.486 -2.175,6.852 -0.139,5.02 1.665,9.832 3.304,14.491 1.643,4.677 3.343,9.529 3.196,14.552 C 80.354,0.599 79.83,2.812 78.503,4.574 77.2,6.313 75.088,7.181 72.993,6.415 70.797,5.614 69.253,3.553 68.212,1.554 67.01,-0.76 66.327,-3.287 65.507,-5.748 65.091,-6.987 64.648,-8.22 64.066,-9.395 c -0.518,-1.056 -1.15,-2.202 -2.163,-2.841 -1.111,-0.703 -2.427,-0.431 -3.406,0.363 -1.011,0.819 -1.496,2.072 -1.708,3.323 -0.459,2.736 -0.107,5.693 0.261,8.419 0.404,2.984 0.999,5.936 1.484,8.902 0.812,5.014 1.266,10.294 -0.186,15.249 -0.337,1.154 -0.78,2.295 -1.332,3.364 -0.542,1.03 -1.206,2.105 -2.224,2.719 -1.984,1.197 -3.883,-0.194 -4.984,-1.86 -0.67,-1.015 -1.141,-2.158 -1.658,-3.252 -0.635,-1.38 -1.277,-2.749 -1.91,-4.12 -0.658,-1.403 -1.308,-2.809 -1.967,-4.212 -0.544,-1.174 -1.025,-2.454 -1.863,-3.462 -1.713,-2.061 -4.563,-1.253 -6.078,0.598 -1.673,2.034 -2.188,4.989 -2.589,7.514 -0.828,5.272 -0.667,10.681 -2.071,15.86 -1.208,4.421 -3.639,8.766 -7.943,10.781 -3.808,1.787 -8.622,1.604 -11.511,-1.77 C 9.011,42.423 9.202,36.901 10.73,32.477 12.397,27.646 15.554,23.57 18.677,19.604 20.36,17.482 22.043,15.36 23.505,13.089 24.218,11.976 24.877,10.836 25.442,9.65 25.933,8.642 26.301,7.507 26.201,6.38 26.079,5.021 25.097,4.395 23.785,4.468 22.361,4.548 20.933,4.91 19.535,5.2 16.785,5.771 14.004,6.415 11.178,6.455 8.833,6.497 6.418,6.13 4.302,5.086 2.311,4.101 0.256,2.337 0,0"
                  style="fill:#1476dd;fill-opacity:1;fill-rule:nonzero;stroke:none" id="path238" />
            </g>
            <g id="g240">
               <g id="g242" />
               <g id="g254">
                  <g clip-path="url(#clipPath246)" opacity="0.429993" id="g252">
                     <g transform="translate(62.0879,262.9932)" id="g250">
                        <path
                           d="m 0,0 c -0.466,1.083 1.158,1.952 1.627,0.861 6.512,-15.134 13.895,-29.889 22.117,-44.168 0.603,-1.046 1.219,-2.084 1.83,-3.125 1.325,8.683 3.08,17.292 5.311,25.788 0.302,1.148 2.061,0.604 1.761,-0.541 -2.352,-8.952 -4.204,-18.027 -5.53,-27.188 -0.024,-0.161 -0.085,-0.294 -0.163,-0.409 4.407,-7.397 9.044,-14.657 13.893,-21.773 4.861,10.542 8.93,21.44 12.179,32.585 0.332,1.138 2.093,0.597 1.761,-0.542 -3.376,-11.578 -7.646,-22.869 -12.738,-33.801 2.89,-4.195 5.853,-8.34 8.893,-12.428 3.084,-4.145 6.252,-8.226 9.485,-12.255 3.717,8.023 6.393,16.499 7.977,25.199 0.212,1.163 1.971,0.612 1.761,-0.542 -1.656,-9.089 -4.517,-17.889 -8.456,-26.239 2.163,-2.669 4.347,-5.32 6.573,-7.937 0.765,-0.9 -0.585,-2.152 -1.357,-1.246 -5.636,6.624 -11.063,13.424 -16.284,20.38 -0.091,-0.026 -0.182,-0.053 -0.292,-0.049 -9.342,0.355 -18.689,0.535 -28.038,0.543 -1.188,0.001 -1.129,1.842 0.054,1.841 8.974,-0.007 17.946,-0.179 26.914,-0.505 -4.229,5.697 -8.325,11.492 -12.266,17.394 -0.706,1.056 -1.4,2.121 -2.096,3.184 -0.116,-0.043 -0.249,-0.063 -0.405,-0.047 -10.13,1.095 -20.28,2.001 -30.444,2.718 -1.181,0.084 -1.129,1.925 0.054,1.842 9.869,-0.697 19.725,-1.575 29.563,-2.627 -2.924,4.522 -5.763,9.099 -8.516,13.727 -9.711,3.989 -19.548,7.666 -29.499,11.016 -1.122,0.377 -0.584,2.139 0.541,1.76 9.241,-3.111 18.38,-6.515 27.415,-10.177 -4.105,7.015 -8.012,14.146 -11.708,21.384 C 7.665,-17.052 3.694,-8.586 0,0"
                           style="fill:#000000;fill-opacity:1;fill-rule:nonzero;stroke:none" id="path248" />
                     </g>
                  </g>
               </g>
            </g>
            <g id="g256" transform="translate(31.6455,204.541)">
               <path
                  d="m 0,0 c 2.813,-6.733 10.49,-9.49 15.191,-14.576 0.354,-0.368 0.758,-0.813 0.874,-1.327 0.164,-0.685 -0.101,-0.864 -0.74,-0.991 -0.846,-0.167 -1.727,-0.194 -2.592,-0.319 -1.699,-0.239 -3.397,-0.599 -4.984,-1.286 -3.083,-1.335 -5.56,-4.186 -6.313,-7.48 -0.713,-3.105 0.323,-6.181 3.481,-7.31 3.621,-1.294 7.883,-1.182 11.675,-1.326 4.126,-0.169 8.328,-0.335 12.263,-1.706 1.533,-0.536 3.791,-1.293 2.839,-3.274 -0.595,-1.238 -1.585,-2.25 -2.181,-3.497 -1.471,-3.084 0.666,-5.981 3.796,-6.672 3.613,-0.802 7.747,0.073 11.337,0.697 3.932,0.682 7.87,1.523 11.872,1.569 0.963,0.011 3.474,0.084 3.69,-1.28 0.136,-0.906 -1.064,-1.976 -1.612,-2.555 -0.582,-0.61 -1.179,-1.198 -1.721,-1.835 -1.979,-2.288 -2.664,-5.353 -0.206,-7.594 2.167,-1.97 5.357,-2.467 8.172,-2.599 12.755,-0.644 24.254,8.276 37.093,6.182 0.764,-0.126 1.027,0.618 0.813,1.201 0.069,0.325 -0.021,0.692 -0.385,0.93 -2.68,1.818 -4.587,4.431 -5.908,7.36 -2.93,6.542 -2.751,13.831 -3.477,20.813 -0.371,3.63 -1.019,7.235 -2.401,10.629 -1.145,2.788 -3.415,5.77 -6.819,5.267 -3.677,-0.549 -4.229,-5.139 -4.398,-8.125 -0.204,-3.63 0.536,-8.045 -1.401,-11.322 -0.904,-1.539 -2.46,-2.382 -4.225,-1.74 -1.744,0.647 -2.797,2.323 -3.366,4.018 -1.291,3.818 -1.225,7.994 -1.502,11.971 -0.249,3.453 -0.696,6.902 -2.042,10.11 -1.172,2.794 -3.158,5.649 -6.157,6.64 -1.313,0.423 -2.762,0.385 -3.938,-0.361 -1.451,-0.923 -2.072,-2.635 -2.443,-4.232 -0.907,-3.92 -0.229,-8.181 -1.583,-11.997 -0.61,-1.744 -2.026,-2.815 -3.717,-1.52 -1.295,0.984 -2.067,2.656 -2.604,4.146 -1.034,2.822 -1.336,5.852 -1.717,8.816 C 44.288,-1.632 43.843,1.346 42.64,4.08 41.619,6.39 39.366,9.896 36.354,9.194 32.923,8.396 33.182,2.925 32.701,0.287 32.373,-1.507 31.814,-3.939 30.16,-4.979 c -1.789,-1.141 -3.784,0.407 -4.861,1.796 -1.121,1.447 -1.95,3.112 -3.005,4.609 -1.046,1.487 -2.191,2.909 -3.49,4.186 -2.4,2.379 -5.334,4.373 -8.699,5.02 C 7.111,11.208 3.748,10.761 1.405,8.664 -1.093,6.412 -1.233,2.948 0,0"
                  style="fill:#14d8d2;fill-opacity:1;fill-rule:nonzero;stroke:none" id="path258" />
            </g>
            <g id="g260">
               <g id="g262" />
               <g id="g274">
                  <g clip-path="url(#clipPath266)" opacity="0.429993" id="g272">
                     <g transform="translate(44.4082,204.0176)" id="g270">
                        <path
                           d="m 0,0 c 8.032,-7.036 16.425,-13.657 25.125,-19.847 0.227,5.41 0.199,10.827 -0.104,16.235 -0.067,1.184 1.774,1.12 1.841,-0.055 0.324,-5.766 0.346,-11.544 0.066,-17.312 0,-0.005 -0.003,-0.009 -0.004,-0.015 0.046,-0.062 0.086,-0.128 0.112,-0.202 6.683,-4.681 13.549,-9.099 20.57,-13.255 -0.127,7.423 -0.332,14.843 -0.628,22.261 -0.048,1.186 1.794,1.124 1.841,-0.055 0.31,-7.767 0.526,-15.536 0.651,-23.308 4.398,-2.562 8.855,-5.022 13.371,-7.37 2.804,-1.457 5.632,-2.864 8.478,-4.236 0.067,6.822 -0.101,13.642 -0.513,20.452 -0.072,1.185 1.77,1.12 1.841,-0.054 0.425,-7.012 0.595,-14.038 0.511,-21.063 -0.001,-0.075 -0.028,-0.132 -0.043,-0.198 3.056,-1.45 6.133,-2.854 9.233,-4.206 1.074,-0.467 0.545,-2.233 -0.542,-1.759 -3.336,1.454 -6.643,2.972 -9.926,4.541 -6.08,-3.312 -12.584,-5.813 -19.318,-7.426 -1.155,-0.276 -1.574,1.518 -0.421,1.793 6.15,1.473 12.075,3.703 17.675,6.626 -7.283,3.544 -14.432,7.361 -21.428,11.439 -7.232,-1 -14.422,-2.273 -21.555,-3.827 -1.16,-0.253 -1.581,1.54 -0.421,1.793 6.431,1.401 12.911,2.564 19.424,3.514 -6.841,4.072 -13.532,8.397 -20.052,12.97 -7.742,-0.527 -15.495,-0.875 -23.254,-1.041 -1.187,-0.026 -1.127,1.815 0.054,1.84 6.942,0.15 13.878,0.452 20.807,0.888 -2.688,1.924 -5.349,3.888 -7.976,5.895 C 9.671,-10.595 4.081,-6.009 -1.356,-1.246 -2.246,-0.467 -0.885,0.775 0,0"
                           style="fill:#000000;fill-opacity:1;fill-rule:nonzero;stroke:none" id="path268" />
                     </g>
                  </g>
               </g>
            </g>
            <g id="g276" transform="translate(114.7593,134.9414)">
               <path d="m 0,0 0.15,1.105 -0.222,0.038 h 248.144 l 45.821,-53.195 h -338.73 z"
                  style="fill:#e02053;fill-opacity:1;fill-rule:nonzero;stroke:none" id="path278" />
            </g>
            <path d="M 408.652,78.022 H 69.922 v 4.867 h 338.73 z"
               style="fill:#ff3363;fill-opacity:1;fill-rule:nonzero;stroke:none" id="path280" />
            <path d="M 408.652,57.26 H 69.922 v 4.866 h 338.73 z"
               style="fill:#ff3363;fill-opacity:1;fill-rule:nonzero;stroke:none" id="path282" />
            <g id="g284" transform="translate(72.9746,78.0225)">
               <path d="m 0,0 c 0,0 5.591,-7.704 0,-15.896 h 333.002 c 0,0 -7.213,6.517 0,15.896 z"
                  style="fill:#fff8e3;fill-opacity:1;fill-rule:nonzero;stroke:none" id="path286" />
            </g>
            <g id="g288" transform="translate(396.3486,74.2295)">
               <path d="m 0,0 h -316.572 c -0.511,0 -0.438,-0.917 0.069,-0.917 H 0.069 C 0.579,-0.917 0.508,0 0,0"
                  style="fill:#e5cfa3;fill-opacity:1;fill-rule:nonzero;stroke:none" id="path290" />
            </g>
            <g id="g292" transform="translate(396.6797,70.0059)">
               <path d="m 0,0 h -316.242 c -0.51,0 -0.438,-0.917 0.07,-0.917 H 0.068 C 0.579,-0.917 0.507,0 0,0"
                  style="fill:#e5cfa3;fill-opacity:1;fill-rule:nonzero;stroke:none" id="path294" />
            </g>
            <g id="g296" transform="translate(395.3564,65.0146)">
               <path d="m 0,0 h -316.242 c -0.51,0 -0.438,-0.917 0.07,-0.917 H 0.069 C 0.579,-0.917 0.507,0 0,0"
                  style="fill:#e5cfa3;fill-opacity:1;fill-rule:nonzero;stroke:none" id="path298" />
            </g>
            <g id="g300">
               <g id="g302" />
               <g id="g314">
                  <g clip-path="url(#clipPath306)" opacity="0.429993" id="g312">
                     <g transform="translate(405.9766,78.0225)" id="g310">
                        <path d="m 0,0 -333.002,-15.896 c 0,0 4.907,7.093 0,15.896 z"
                           style="fill:#000000;fill-opacity:1;fill-rule:nonzero;stroke:none" id="path308" />
                     </g>
                  </g>
               </g>
            </g>
            <g id="g316" transform="translate(455.9873,164.7109)">
               <path
                  d="m 0,0 c -0.23,-2.265 -2.348,-3.453 -4.337,-3.969 -2.385,-0.626 -4.908,-0.819 -7.348,-1.04 -5.23,-0.461 -10.552,-0.571 -15.681,-1.833 -2.504,-0.616 -5.083,-1.482 -7.265,-2.882 -0.451,-0.285 -1.096,-0.736 -1.179,-1.316 -0.091,-0.645 0.581,-0.931 1.096,-1.068 1.133,-0.314 2.329,-0.47 3.49,-0.701 4.66,-0.92 9.585,-2.108 13.195,-5.404 1.538,-1.4 2.836,-3.536 2.569,-5.69 -0.322,-2.487 -2.781,-3.131 -4.88,-3.509 -5.24,-0.958 -10.608,-0.58 -15.902,-0.424 -5.175,0.166 -10.534,0.176 -15.47,-1.62 -1.133,-0.414 -2.44,-0.875 -3.37,-1.657 -0.902,-0.755 -0.856,-1.769 0.046,-2.468 0.792,-0.617 1.823,-0.931 2.781,-1.179 1.077,-0.276 2.127,-0.617 3.14,-1.077 3.987,-1.823 7.688,-5.442 8.462,-9.908 0.368,-2.136 -0.157,-4.512 -2.136,-5.682 -2.063,-1.206 -4.733,-0.994 -7.017,-0.726 -5.276,0.607 -10.239,2.642 -15.285,4.208 -2.477,0.773 -5.009,1.435 -7.597,1.758 -1.187,0.157 -2.504,0.359 -3.692,0.065 -0.819,-0.194 -2.025,-0.811 -1.455,-1.833 0.286,-0.534 0.875,-0.893 1.345,-1.252 l 1.804,-1.382 c 1.198,-0.911 2.385,-1.822 3.582,-2.743 1.888,-1.446 3.959,-3.241 3.997,-5.829 0.083,-5.543 -8.094,-4.659 -11.575,-3.803 -5.037,1.225 -9.604,3.821 -14.567,5.276 -5.377,1.575 -11.114,1.373 -16.344,-0.663 -0.303,-0.12 -0.561,0.102 -0.617,0.387 -0.027,0.138 -0.027,0.267 -0.009,0.396 -0.129,0.23 -0.101,0.544 0.221,0.635 0.083,0.019 0.147,0.046 0.23,0.065 0.194,0.138 0.433,0.221 0.691,0.23 3.572,1.354 6.031,4.567 7.339,8.113 1.841,4.981 1.187,10.349 0.165,15.441 -0.589,2.938 -1.307,5.847 -1.805,8.803 -0.478,2.863 -0.745,5.763 -0.755,8.665 -0.009,2.936 0.231,5.884 0.765,8.774 0.451,2.487 0.967,5.36 2.568,7.395 1.372,1.749 3.904,2.679 5.885,1.362 0.994,-0.663 1.693,-1.722 2.256,-2.753 0.589,-1.068 1.05,-2.191 1.418,-3.361 0.755,-2.421 1.114,-4.935 1.537,-7.431 0.415,-2.403 0.802,-5.009 1.98,-7.182 0.506,-0.93 1.206,-1.823 2.192,-2.274 1.095,-0.497 2.302,-0.258 3.277,0.396 2.035,1.39 3.012,3.941 3.564,6.243 1.188,4.88 0.433,9.963 -0.194,14.861 -0.626,4.917 -1.27,10.019 -0.073,14.899 0.516,2.118 1.491,4.171 3.158,5.617 1.639,1.427 3.886,1.832 5.774,0.644 1.979,-1.243 3.056,-3.582 3.655,-5.755 0.69,-2.513 0.829,-5.129 1.114,-7.707 0.148,-1.299 0.322,-2.596 0.645,-3.867 0.285,-1.141 0.663,-2.394 1.519,-3.232 0.94,-0.921 2.283,-0.93 3.407,-0.359 1.161,0.589 1.897,1.712 2.367,2.891 1.022,2.578 1.298,5.543 1.509,8.287 0.231,3.002 0.268,6.013 0.415,9.015 0.258,5.074 0.92,10.331 3.379,14.871 0.572,1.058 1.244,2.081 2.007,3.011 0.746,0.893 1.621,1.804 2.744,2.191 2.192,0.755 3.757,-1.003 4.485,-2.863 0.442,-1.133 0.663,-2.348 0.939,-3.527 0.331,-1.482 0.672,-2.956 1.004,-4.429 0.35,-1.51 0.691,-3.02 1.04,-4.531 0.285,-1.261 0.488,-2.615 1.096,-3.775 1.243,-2.375 4.199,-2.182 6.068,-0.691 2.063,1.64 3.186,4.42 4.107,6.805 1.915,4.982 2.891,10.304 5.349,15.073 2.11,4.071 5.397,7.809 10.029,8.877 4.096,0.949 8.765,-0.239 10.883,-4.143 2.348,-4.347 1.003,-9.705 -1.419,-13.711 -2.642,-4.374 -6.583,-7.697 -10.468,-10.921 -2.091,-1.722 -4.181,-3.443 -6.087,-5.358 -0.93,-0.94 -1.814,-1.915 -2.615,-2.956 -0.691,-0.884 -1.29,-1.916 -1.427,-3.039 -0.166,-1.354 0.663,-2.173 1.961,-2.376 1.409,-0.22 2.883,-0.166 4.309,-0.174 2.809,-0.019 5.663,0.027 8.435,-0.526 C -7.274,8.204 -4.99,7.339 -3.14,5.875 -1.399,4.493 0.239,2.339 0,0"
                  style="fill:#1476dd;fill-opacity:1;fill-rule:nonzero;stroke:none" id="path318" />
            </g>
            <g id="g320">
               <g id="g322" />
               <g id="g334">
                  <g clip-path="url(#clipPath326)" opacity="0.429993" id="g332">
                     <g transform="translate(445.0801,202.5771)" id="g330">
                        <path
                           d="m 0,0 c 0.683,0.961 -0.723,2.151 -1.41,1.184 -9.54,-13.434 -19.853,-26.313 -30.885,-38.55 -0.809,-0.897 -1.629,-1.782 -2.445,-2.673 0.525,8.768 0.614,17.555 0.214,26.329 -0.055,1.186 -1.889,1.022 -1.835,-0.16 0.423,-9.246 0.33,-18.508 -0.292,-27.743 -0.012,-0.163 0.02,-0.306 0.072,-0.435 -5.859,-6.308 -11.915,-12.435 -18.148,-18.377 -2.543,11.327 -4.238,22.836 -5.078,34.415 -0.086,1.182 -1.921,1.023 -1.835,-0.161 0.873,-12.028 2.682,-23.964 5.369,-35.72 -3.706,-3.496 -7.471,-6.928 -11.301,-10.288 -3.884,-3.406 -7.837,-6.732 -11.843,-9.994 -1.953,8.624 -2.792,17.473 -2.518,26.312 0.038,1.181 -1.797,1.01 -1.835,-0.161 -0.287,-9.234 0.666,-18.438 2.767,-27.429 -2.674,-2.156 -5.365,-4.291 -8.09,-6.382 -0.937,-0.72 0.121,-2.228 1.065,-1.504 6.9,5.296 13.632,10.808 20.195,16.514 0.084,-0.044 0.166,-0.089 0.275,-0.109 9.208,-1.612 18.386,-3.395 27.529,-5.347 1.162,-0.248 1.49,1.564 0.333,1.811 -8.776,1.874 -17.584,3.588 -26.421,5.149 5.329,4.683 10.55,9.492 15.639,14.435 0.913,0.886 1.814,1.781 2.717,2.675 0.105,-0.066 0.231,-0.114 0.386,-0.131 10.135,-1.054 20.249,-2.295 30.338,-3.724 1.172,-0.166 1.508,1.645 0.333,1.811 -9.796,1.388 -19.616,2.596 -29.456,3.629 3.806,3.809 7.541,7.688 11.203,11.637 10.332,1.864 20.722,3.397 31.153,4.588 1.176,0.133 1.02,1.968 -0.16,1.834 -9.687,-1.105 -19.337,-2.517 -28.939,-4.205 5.485,5.999 10.799,12.153 15.931,18.456 C -11.069,-15.066 -5.412,-7.621 0,0"
                           style="fill:#000000;fill-opacity:1;fill-rule:nonzero;stroke:none" id="path328" />
                     </g>
                  </g>
               </g>
            </g>
            <g id="g336" transform="translate(462.5928,139.043)">
               <path
                  d="m 0,0 c -4.162,-5.995 -12.247,-7.081 -17.909,-11.068 -0.424,-0.286 -0.912,-0.636 -1.133,-1.115 -0.304,-0.635 -0.083,-0.865 0.516,-1.123 0.792,-0.34 1.648,-0.552 2.467,-0.856 1.612,-0.59 3.196,-1.299 4.604,-2.302 2.735,-1.952 4.559,-5.258 4.604,-8.638 0.046,-3.185 -1.611,-5.975 -4.935,-6.418 -3.813,-0.505 -7.956,0.498 -11.694,1.152 -4.071,0.699 -8.214,1.418 -12.348,0.902 -1.611,-0.203 -3.978,-0.47 -3.462,-2.606 0.322,-1.335 1.077,-2.532 1.399,-3.876 0.792,-3.324 -1.906,-5.709 -5.11,-5.728 -3.702,-0.027 -7.56,1.695 -10.939,3.058 -3.702,1.491 -7.375,3.139 -11.28,4.023 -0.939,0.212 -3.38,0.811 -3.877,-0.478 -0.322,-0.857 0.626,-2.156 1.041,-2.836 0.442,-0.719 0.903,-1.419 1.298,-2.155 1.455,-2.652 1.483,-5.792 -1.39,-7.468 -2.533,-1.473 -5.755,-1.289 -8.536,-0.828 -12.606,2.044 -21.979,13.176 -34.971,13.821 -0.774,0.036 -0.875,0.819 -0.544,1.344 0,0.332 0.166,0.672 0.571,0.829 3.002,1.215 5.414,3.37 7.32,5.957 4.236,5.783 5.589,12.946 7.762,19.622 1.124,3.472 2.515,6.86 4.577,9.89 1.703,2.486 4.548,4.926 7.772,3.719 3.48,-1.307 3.056,-5.911 2.596,-8.867 -0.562,-3.591 -2.21,-7.753 -1.003,-11.362 0.561,-1.695 1.906,-2.846 3.765,-2.588 1.842,0.267 3.223,1.685 4.135,3.224 2.062,3.461 2.873,7.559 3.977,11.389 0.967,3.324 2.127,6.603 4.117,9.457 1.731,2.486 4.272,4.862 7.412,5.202 1.372,0.138 2.781,-0.202 3.775,-1.178 1.225,-1.206 1.474,-3.011 1.501,-4.651 0.065,-4.023 -1.492,-8.047 -0.967,-12.061 0.231,-1.833 1.391,-3.177 3.315,-2.266 1.473,0.691 2.578,2.164 3.417,3.508 1.601,2.542 2.531,5.442 3.526,8.26 0.985,2.799 2.044,5.617 3.794,8.039 1.483,2.044 4.419,5 7.219,3.682 3.185,-1.501 1.786,-6.795 1.703,-9.474 -0.055,-1.824 -0.019,-4.319 1.381,-5.682 1.511,-1.491 3.785,-0.395 5.129,0.737 1.4,1.178 2.56,2.633 3.904,3.876 1.335,1.235 2.754,2.385 4.291,3.362 2.846,1.823 6.133,3.158 9.558,3.084 3.048,-0.065 6.243,-1.206 8.093,-3.747 C 2.412,6.04 1.823,2.624 0,0"
                  style="fill:#14d8d2;fill-opacity:1;fill-rule:nonzero;stroke:none" id="path338" />
            </g>
            <g id="g340">
               <g id="g342" />
               <g id="g354">
                  <g clip-path="url(#clipPath346)" opacity="0.429993" id="g352">
                     <g transform="translate(450.0039,141.2061)" id="g350">
                        <path
                           d="m 0,0 c -9.329,-5.195 -18.924,-9.91 -28.728,-14.139 0.913,5.338 2.076,10.628 3.506,15.852 0.314,1.144 -1.501,1.468 -1.812,0.333 -1.526,-5.57 -2.758,-11.215 -3.695,-16.914 0,-0.006 10e-4,-0.01 10e-4,-0.015 -0.057,-0.052 -0.11,-0.108 -0.152,-0.175 -7.515,-3.175 -15.154,-6.055 -22.891,-8.647 1.681,7.23 3.436,14.443 5.281,21.634 0.296,1.149 -1.519,1.474 -1.812,0.333 -1.931,-7.53 -3.771,-15.081 -5.522,-22.654 -4.837,-1.584 -9.711,-3.054 -14.619,-4.403 -3.047,-0.838 -6.108,-1.62 -9.177,-2.365 1.364,6.684 2.958,13.318 4.789,19.889 0.318,1.144 -1.496,1.467 -1.813,0.333 -1.884,-6.767 -3.524,-13.6 -4.915,-20.487 -0.014,-0.074 0,-0.135 0,-0.202 -3.291,-0.777 -6.593,-1.506 -9.909,-2.177 -1.147,-0.232 -1.001,-2.07 0.161,-1.835 3.567,0.723 7.119,1.515 10.658,2.361 5.251,-4.514 11.086,-8.323 17.332,-11.312 1.072,-0.512 1.857,1.154 0.788,1.666 -5.704,2.729 -11.031,6.152 -15.894,10.184 7.864,1.938 15.654,4.172 23.351,6.692 6.861,-2.493 13.625,-5.246 20.273,-8.261 1.081,-0.49 1.868,1.175 0.788,1.665 -5.995,2.718 -12.087,5.214 -18.256,7.508 7.542,2.548 14.992,5.374 22.325,8.479 7.46,-2.139 14.967,-4.105 22.519,-5.894 1.155,-0.273 1.483,1.539 0.333,1.812 -6.756,1.6 -13.475,3.349 -20.158,5.229 3.032,1.318 6.045,2.68 9.035,4.092 6.535,3.086 12.963,6.398 19.277,9.915 C 2.098,-0.927 1.027,0.572 0,0"
                           style="fill:#000000;fill-opacity:1;fill-rule:nonzero;stroke:none" id="path348" />
                     </g>
                  </g>
               </g>
            </g>
            <g id="g356" transform="translate(123.979,191.6045)">
               <path d="m 0,0 0.122,1.547 -0.18,0.052 H 200.32 l 37,-74.446 H -36.207 Z"
                  style="fill:#ffae43;fill-opacity:1;fill-rule:nonzero;stroke:none" id="path358" />
            </g>
            <path d="M 361.299,111.947 H 87.773 v 6.811 h 273.526 z"
               style="fill:#ffc952;fill-opacity:1;fill-rule:nonzero;stroke:none" id="path360" />
            <path d="M 361.299,82.89 H 87.773 v 6.81 h 273.526 z"
               style="fill:#ffc952;fill-opacity:1;fill-rule:nonzero;stroke:none" id="path362" />
            <g id="g364" transform="translate(90.2378,111.9473)">
               <path d="m 0,0 c 0,0 4.515,-10.782 0,-22.248 h 268.9 c 0,0 -5.823,9.122 0,22.248 z"
                  style="fill:#fff8e3;fill-opacity:1;fill-rule:nonzero;stroke:none" id="path366" />
            </g>
            <g id="g368" transform="translate(351.3633,106.6387)">
               <path d="m 0,0 h -255.633 c -0.412,0 -0.354,-1.283 0.056,-1.283 H 0.057 C 0.469,-1.283 0.41,0 0,0"
                  style="fill:#e5cfa3;fill-opacity:1;fill-rule:nonzero;stroke:none" id="path370" />
            </g>
            <g id="g372" transform="translate(351.6309,100.7285)">
               <path d="m 0,0 h -255.366 c -0.412,0 -0.354,-1.284 0.055,-1.284 H 0.056 C 0.468,-1.284 0.41,0 0,0"
                  style="fill:#e5cfa3;fill-opacity:1;fill-rule:nonzero;stroke:none" id="path374" />
            </g>
            <g id="g376" transform="translate(350.5625,93.7432)">
               <path d="m 0,0 h -255.366 c -0.413,0 -0.354,-1.284 0.055,-1.284 H 0.056 C 0.468,-1.284 0.409,0 0,0"
                  style="fill:#e5cfa3;fill-opacity:1;fill-rule:nonzero;stroke:none" id="path378" />
            </g>
            <g id="g380">
               <g id="g382" />
               <g id="g394">
                  <g clip-path="url(#clipPath386)" opacity="0.429993" id="g392">
                     <g transform="translate(359.1377,111.9473)" id="g390">
                        <path d="m 0,0 -268.9,-22.248 c 0,0 3.963,9.929 0,22.248 z"
                           style="fill:#000000;fill-opacity:1;fill-rule:nonzero;stroke:none" id="path388" />
                     </g>
                  </g>
               </g>
            </g>
            <g id="g396" transform="translate(397.2236,185.8887)">
               <path
                  d="m 0,0 c 0,-7.707 -6.271,-13.978 -13.978,-13.978 h -263.135 c -7.707,0 -13.977,6.271 -13.977,13.978 v 162.29 c 0,7.707 6.27,13.978 13.977,13.978 H -13.978 C -6.271,176.268 0,169.997 0,162.29 Z m -13.978,179.03 h -263.135 c -9.236,0 -16.74,-7.514 -16.74,-16.74 V 0 c 0,-9.227 7.504,-16.74 16.74,-16.74 h 263.135 c 9.236,0 16.741,7.513 16.741,16.74 v 162.29 c 0,9.226 -7.505,16.74 -16.741,16.74"
                  style="fill:#b2b4d3;fill-opacity:1;fill-rule:nonzero;stroke:none" id="path398" />
            </g>
            <g id="g400" transform="translate(397.2236,348.1787)">
               <path
                  d="m 0,0 v -162.29 c 0,-7.707 -6.271,-13.978 -13.978,-13.978 h -263.135 c -7.707,0 -13.977,6.271 -13.977,13.978 V 0 c 0,7.707 6.27,13.978 13.977,13.978 H -13.978 C -6.271,13.978 0,7.707 0,0"
                  style="fill:#d9e4eb;fill-opacity:1;fill-rule:nonzero;stroke:none" id="path402" />
            </g>
            <g id="g404" transform="translate(394.0469,347.3223)">
               <path
                  d="m 0,0 v -161.038 c 0,-6.437 -5.221,-11.657 -11.666,-11.657 h -261.883 c -3.803,0 -7.182,1.823 -9.309,4.64 -1.483,1.952 -2.358,4.384 -2.358,7.017 V 0 Z"
                  style="fill:#14d8d2;fill-opacity:1;fill-rule:nonzero;stroke:none" id="path406" />
            </g>
            <g id="g408" transform="translate(108.835,347.3262)">
               <path d="M 0,0 C 0,6.439 5.22,11.659 11.659,11.659 H 273.55 c 6.439,0 11.659,-5.22 11.659,-11.659 z"
                  style="fill:#111414;fill-opacity:1;fill-rule:nonzero;stroke:none" id="path410" />
            </g>
            <g id="g412" transform="translate(424.8389,137.9238)">
               <path
                  d="m 0,0 h -349.921 l 25.34,25.35 c 3.757,3.756 8.868,5.875 14.19,5.875 h 270.852 c 5.322,0 10.423,-2.119 14.189,-5.875 z"
                  style="fill:#d9e4eb;fill-opacity:1;fill-rule:nonzero;stroke:none" id="path414" />
            </g>
            <g id="g416" transform="translate(424.8389,137.9238)">
               <path
                  d="m 0,0 v -1.869 c 0,-5.838 -4.733,-10.57 -10.571,-10.57 h -328.788 c -5.838,0 -10.571,4.732 -10.571,10.57 l 0,1.869 z"
                  style="fill:#b2b4d3;fill-opacity:1;fill-rule:nonzero;stroke:none" id="path418" />
            </g>
            <g id="g420" transform="translate(279.5049,131.7041)">
               <path d="m 0,0 h -60.513 c -3.435,0 -6.22,2.785 -6.22,6.22 H 6.22 C 6.22,2.785 3.435,0 0,0"
                  style="fill:#111414;fill-opacity:1;fill-rule:nonzero;stroke:none" id="path422" />
            </g>
            <g id="g424" transform="translate(294.9395,143.4033)">
               <path
                  d="m 0,0 h -95.736 l 6.933,10.595 c 1.028,1.57 2.426,2.456 3.882,2.456 h 74.104 c 1.456,0 2.851,-0.886 3.881,-2.456 z"
                  style="fill:#ffffff;fill-opacity:1;fill-rule:nonzero;stroke:none" id="path426" />
            </g>
            <g id="g428" transform="translate(390.8896,161.5195)">
               <path d="m 0,0 h -280.547 c -0.593,0 -0.509,-0.917 0.08,-0.917 H 0.08 C 0.673,-0.917 0.589,0 0,0"
                  style="fill:#ffffff;fill-opacity:1;fill-rule:nonzero;stroke:none" id="path430" />
            </g>
            <g id="g432" transform="translate(388.5859,166.6396)">
               <path d="m 0,0 h -276.452 c -0.592,0 -0.508,-0.918 0.08,-0.918 H 0.08 C 0.673,-0.918 0.589,0 0,0"
                  style="fill:#ffffff;fill-opacity:1;fill-rule:nonzero;stroke:none" id="path434" />
            </g>
            <g id="g436">
               <g id="g438" />
               <g id="g466">
                  <g clip-path="url(#clipPath442)" opacity="0.75" id="g464">
                     <g transform="translate(377.2061,326.1655)" id="g446">
                        <path
                           d="m 0,0 v -137.484 c 0,-6.788 -5.332,-12.342 -11.849,-12.342 h -226.218 c -6.517,0 -11.849,5.554 -11.849,12.342 l 0,137.484 z"
                           style="fill:#000000;fill-opacity:1;fill-rule:nonzero;stroke:none" id="path444" />
                     </g>
                     <g transform="translate(377.2061,331.5571)" id="g450">
                        <path
                           d="M 0,0 V -5.392 H -249.916 V 0 c 0,6.517 5.332,11.849 11.849,11.849 H -11.849 C -5.332,11.849 0,6.517 0,0"
                           style="fill:#000000;fill-opacity:1;fill-rule:nonzero;stroke:none" id="path448" />
                     </g>
                     <g transform="translate(361.5732,334.8135)" id="g454">
                        <path
                           d="m 0,0 c 0,-2.35 -1.905,-4.254 -4.255,-4.254 -2.349,0 -4.255,1.904 -4.255,4.254 0,2.35 1.906,4.255 4.255,4.255 C -1.905,4.255 0,2.35 0,0"
                           style="fill:#000000;fill-opacity:1;fill-rule:nonzero;stroke:none" id="path452" />
                     </g>
                     <g transform="translate(344.9951,334.7861)" id="g458">
                        <path
                           d="m 0,0 c 0,-2.35 -1.904,-4.255 -4.254,-4.255 -2.35,0 -4.255,1.905 -4.255,4.255 0,2.35 1.905,4.254 4.255,4.254 C -1.904,4.254 0,2.35 0,0"
                           style="fill:#000000;fill-opacity:1;fill-rule:nonzero;stroke:none" id="path456" />
                     </g>
                     <g transform="translate(327.4902,334.7861)" id="g462">
                        <path
                           d="m 0,0 c 0,-2.35 -1.905,-4.255 -4.255,-4.255 -2.349,0 -4.255,1.905 -4.255,4.255 0,2.35 1.906,4.254 4.255,4.254 C -1.905,4.254 0,2.35 0,0"
                           style="fill:#000000;fill-opacity:1;fill-rule:nonzero;stroke:none" id="path460" />
                     </g>
                  </g>
               </g>
            </g>
            <g id="g468" transform="translate(374.2061,328.1655)">
               <path
                  d="m 0,0 v -137.484 c 0,-6.788 -5.332,-12.342 -11.849,-12.342 h -226.218 c -6.517,0 -11.849,5.554 -11.849,12.342 l 0,137.484 z"
                  style="fill:#cbf4ef;fill-opacity:1;fill-rule:nonzero;stroke:none" id="path470" />
            </g>
            <g id="g472" transform="translate(374.2061,333.5571)">
               <path
                  d="M 0,0 V -5.392 H -249.916 V 0 c 0,6.517 5.332,11.849 11.849,11.849 H -11.849 C -5.332,11.849 0,6.517 0,0"
                  style="fill:#ff3363;fill-opacity:1;fill-rule:nonzero;stroke:none" id="path474" />
            </g>
            <g id="g476" transform="translate(358.5732,336.8135)">
               <path
                  d="m 0,0 c 0,-2.35 -1.905,-4.254 -4.255,-4.254 -2.349,0 -4.255,1.904 -4.255,4.254 0,2.35 1.906,4.255 4.255,4.255 C -1.905,4.255 0,2.35 0,0"
                  style="fill:#1476dd;fill-opacity:1;fill-rule:nonzero;stroke:none" id="path478" />
            </g>
            <g id="g480" transform="translate(341.9951,336.7861)">
               <path
                  d="m 0,0 c 0,-2.35 -1.904,-4.255 -4.254,-4.255 -2.35,0 -4.255,1.905 -4.255,4.255 0,2.35 1.905,4.254 4.255,4.254 C -1.904,4.254 0,2.35 0,0"
                  style="fill:#ffc0cb;fill-opacity:1;fill-rule:nonzero;stroke:none" id="path482" />
            </g>
            <g id="g484" transform="translate(324.4902,336.7861)">
               <path
                  d="m 0,0 c 0,-2.35 -1.905,-4.255 -4.255,-4.255 -2.349,0 -4.255,1.905 -4.255,4.255 0,2.35 1.906,4.254 4.255,4.254 C -1.905,4.254 0,2.35 0,0"
                  style="fill:#fdffff;fill-opacity:1;fill-rule:nonzero;stroke:none" id="path486" />
            </g>
            <g id="g488" transform="translate(377.29,293.7104)">
               <path
                  d="M 0,0 H -75.323 V 8.803 H 0 C -0.186,8.803 -0.364,8.784 -0.536,8.729 -0.568,8.72 -0.602,8.72 -0.635,8.71 -1.25,8.536 -1.806,8.112 -2.235,7.514 -2.805,6.712 -3.161,5.607 -3.161,4.401 -3.161,1.979 -1.739,0 0,0"
                  style="fill:#ffc952;fill-opacity:1;fill-rule:nonzero;stroke:none" id="path490" />
            </g>
            <g id="g492" transform="translate(377.29,284.9072)">
               <path
                  d="M 0,0 H -75.323 V 8.803 H 0 C -0.866,8.803 -1.66,8.306 -2.235,7.514 -2.805,6.713 -3.161,5.608 -3.161,4.402 -3.161,1.98 -1.739,0 0,0"
                  style="fill:#ffae43;fill-opacity:1;fill-rule:nonzero;stroke:none" id="path494" />
            </g>
            <g id="g496" transform="translate(376.2979,276.3257)">
               <path
                  d="M 0,0 C 0.311,-0.147 0.648,-0.23 0.992,-0.23 H -74.331 V 8.582 H 0.992 C 0.126,8.582 -0.668,8.084 -1.243,7.283 -1.812,6.492 -2.169,5.387 -2.169,4.18 -2.169,2.237 -1.257,0.58 0,0"
                  style="fill:#ffc952;fill-opacity:1;fill-rule:nonzero;stroke:none" id="path498" />
            </g>
            <g id="g500" transform="translate(400.6035,294.9624)">
               <path
                  d="m 0,0 c -0.503,-3.71 -3.717,-8.895 -3.717,-8.895 l -19.596,-9.972 c 0,0 -0.377,0.064 -0.993,0.23 -1.256,0.58 -2.169,2.238 -2.169,4.18 0,1.207 0.357,2.312 0.926,3.103 0.575,0.802 1.369,1.299 2.236,1.299 -1.74,0 -3.162,1.98 -3.162,4.402 0,1.206 0.357,2.311 0.926,3.112 0.575,0.791 1.369,1.289 2.236,1.289 -1.74,0 -3.162,1.98 -3.162,4.401 0,1.206 0.357,2.311 0.926,3.113 0.43,0.598 0.986,1.022 1.601,1.196 0.033,0.01 0.066,0.01 0.098,0.019 0.338,0.055 0.537,0.074 0.537,0.074 z"
                  style="fill:#ffc0cb;fill-opacity:1;fill-rule:nonzero;stroke:none" id="path502" />
            </g>
            <g id="g504" transform="translate(389.4326,298.5806)">
               <path d="m 0,0 3.589,-14.48 3.865,1.967 c 0,0 2.886,3.181 3.717,8.895 z"
                  style="fill:#111414;fill-opacity:1;fill-rule:nonzero;stroke:none" id="path506" />
            </g>
            <g id="g508" transform="translate(138.5522,313.4946)">
               <path
                  d="m 0,0 c 0,-1.265 -1.025,-2.29 -2.29,-2.29 -1.264,0 -2.289,1.025 -2.289,2.29 0,1.264 1.025,2.29 2.289,2.29 C -1.025,2.29 0,1.264 0,0"
                  style="fill:#ff3363;fill-opacity:1;fill-rule:nonzero;stroke:none" id="path510" />
            </g>
            <g id="g512" transform="translate(148.1738,313.4946)">
               <path
                  d="m 0,0 c 0,-1.265 -1.025,-2.29 -2.29,-2.29 -1.264,0 -2.289,1.025 -2.289,2.29 0,1.264 1.025,2.29 2.289,2.29 C -1.025,2.29 0,1.264 0,0"
                  style="fill:#ff3363;fill-opacity:1;fill-rule:nonzero;stroke:none" id="path514" />
            </g>
            <g id="g516" transform="translate(157.7954,313.4946)">
               <path
                  d="m 0,0 c 0,-1.265 -1.025,-2.29 -2.289,-2.29 -1.265,0 -2.29,1.025 -2.29,2.29 0,1.264 1.025,2.29 2.29,2.29 C -1.025,2.29 0,1.264 0,0"
                  style="fill:#ff3363;fill-opacity:1;fill-rule:nonzero;stroke:none" id="path518" />
            </g>
            <g id="g520" transform="translate(167.4175,313.4946)">
               <path
                  d="m 0,0 c 0,-1.265 -1.025,-2.29 -2.29,-2.29 -1.264,0 -2.289,1.025 -2.289,2.29 0,1.264 1.025,2.29 2.289,2.29 C -1.025,2.29 0,1.264 0,0"
                  style="fill:#ff3363;fill-opacity:1;fill-rule:nonzero;stroke:none" id="path522" />
            </g>
            <g id="g524" transform="translate(177.0391,313.4946)">
               <path
                  d="m 0,0 c 0,-1.265 -1.025,-2.29 -2.29,-2.29 -1.264,0 -2.289,1.025 -2.289,2.29 0,1.264 1.025,2.29 2.289,2.29 C -1.025,2.29 0,1.264 0,0"
                  style="fill:#ff3363;fill-opacity:1;fill-rule:nonzero;stroke:none" id="path526" />
            </g>
            <g id="g528" transform="translate(138.5522,303.7324)">
               <path
                  d="m 0,0 c 0,-1.265 -1.025,-2.29 -2.29,-2.29 -1.264,0 -2.289,1.025 -2.289,2.29 0,1.264 1.025,2.29 2.289,2.29 C -1.025,2.29 0,1.264 0,0"
                  style="fill:#ff3363;fill-opacity:1;fill-rule:nonzero;stroke:none" id="path530" />
            </g>
            <g id="g532" transform="translate(148.1738,303.7324)">
               <path
                  d="m 0,0 c 0,-1.265 -1.025,-2.29 -2.29,-2.29 -1.264,0 -2.289,1.025 -2.289,2.29 0,1.264 1.025,2.29 2.289,2.29 C -1.025,2.29 0,1.264 0,0"
                  style="fill:#ff3363;fill-opacity:1;fill-rule:nonzero;stroke:none" id="path534" />
            </g>
            <g id="g536" transform="translate(157.7954,303.7324)">
               <path
                  d="m 0,0 c 0,-1.265 -1.025,-2.29 -2.289,-2.29 -1.265,0 -2.29,1.025 -2.29,2.29 0,1.264 1.025,2.29 2.29,2.29 C -1.025,2.29 0,1.264 0,0"
                  style="fill:#ff3363;fill-opacity:1;fill-rule:nonzero;stroke:none" id="path538" />
            </g>
            <g id="g540" transform="translate(167.4175,303.7324)">
               <path
                  d="m 0,0 c 0,-1.265 -1.025,-2.29 -2.29,-2.29 -1.264,0 -2.289,1.025 -2.289,2.29 0,1.264 1.025,2.29 2.289,2.29 C -1.025,2.29 0,1.264 0,0"
                  style="fill:#ff3363;fill-opacity:1;fill-rule:nonzero;stroke:none" id="path542" />
            </g>
            <g id="g544" transform="translate(177.0391,303.7324)">
               <path
                  d="m 0,0 c 0,-1.265 -1.025,-2.29 -2.29,-2.29 -1.264,0 -2.289,1.025 -2.289,2.29 0,1.264 1.025,2.29 2.289,2.29 C -1.025,2.29 0,1.264 0,0"
                  style="fill:#ff3363;fill-opacity:1;fill-rule:nonzero;stroke:none" id="path546" />
            </g>
            <g id="g548" transform="translate(138.5522,341.8198)">
               <path
                  d="m 0,0 c 0,-1.265 -1.025,-2.29 -2.29,-2.29 -1.264,0 -2.289,1.025 -2.289,2.29 0,1.264 1.025,2.289 2.289,2.289 C -1.025,2.289 0,1.264 0,0"
                  style="fill:#ff3363;fill-opacity:1;fill-rule:nonzero;stroke:none" id="path550" />
            </g>
            <g id="g552" transform="translate(148.1738,341.8198)">
               <path
                  d="m 0,0 c 0,-1.265 -1.025,-2.29 -2.29,-2.29 -1.264,0 -2.289,1.025 -2.289,2.29 0,1.264 1.025,2.289 2.289,2.289 C -1.025,2.289 0,1.264 0,0"
                  style="fill:#ff3363;fill-opacity:1;fill-rule:nonzero;stroke:none" id="path554" />
            </g>
            <g id="g556" transform="translate(157.7954,341.8198)">
               <path
                  d="m 0,0 c 0,-1.265 -1.025,-2.29 -2.289,-2.29 -1.265,0 -2.29,1.025 -2.29,2.29 0,1.264 1.025,2.289 2.29,2.289 C -1.025,2.289 0,1.264 0,0"
                  style="fill:#ff3363;fill-opacity:1;fill-rule:nonzero;stroke:none" id="path558" />
            </g>
            <g id="g560" transform="translate(167.4175,341.8198)">
               <path
                  d="m 0,0 c 0,-1.265 -1.025,-2.29 -2.29,-2.29 -1.264,0 -2.289,1.025 -2.289,2.29 0,1.264 1.025,2.289 2.289,2.289 C -1.025,2.289 0,1.264 0,0"
                  style="fill:#ff3363;fill-opacity:1;fill-rule:nonzero;stroke:none" id="path562" />
            </g>
            <g id="g564" transform="translate(177.0391,341.8198)">
               <path
                  d="m 0,0 c 0,-1.265 -1.025,-2.29 -2.29,-2.29 -1.264,0 -2.289,1.025 -2.289,2.29 0,1.264 1.025,2.289 2.289,2.289 C -1.025,2.289 0,1.264 0,0"
                  style="fill:#ff3363;fill-opacity:1;fill-rule:nonzero;stroke:none" id="path566" />
            </g>
            <g id="g568" transform="translate(138.5522,332.0576)">
               <path
                  d="m 0,0 c 0,-1.265 -1.025,-2.29 -2.29,-2.29 -1.264,0 -2.289,1.025 -2.289,2.29 0,1.264 1.025,2.289 2.289,2.289 C -1.025,2.289 0,1.264 0,0"
                  style="fill:#ff3363;fill-opacity:1;fill-rule:nonzero;stroke:none" id="path570" />
            </g>
            <g id="g572" transform="translate(148.1738,332.0576)">
               <path
                  d="m 0,0 c 0,-1.265 -1.025,-2.29 -2.29,-2.29 -1.264,0 -2.289,1.025 -2.289,2.29 0,1.264 1.025,2.289 2.289,2.289 C -1.025,2.289 0,1.264 0,0"
                  style="fill:#ff3363;fill-opacity:1;fill-rule:nonzero;stroke:none" id="path574" />
            </g>
            <g id="g576" transform="translate(157.7954,332.0576)">
               <path
                  d="m 0,0 c 0,-1.265 -1.025,-2.29 -2.289,-2.29 -1.265,0 -2.29,1.025 -2.29,2.29 0,1.264 1.025,2.289 2.29,2.289 C -1.025,2.289 0,1.264 0,0"
                  style="fill:#ff3363;fill-opacity:1;fill-rule:nonzero;stroke:none" id="path578" />
            </g>
            <g id="g580" transform="translate(167.4175,332.0576)">
               <path
                  d="m 0,0 c 0,-1.265 -1.025,-2.29 -2.29,-2.29 -1.264,0 -2.289,1.025 -2.289,2.29 0,1.264 1.025,2.289 2.289,2.289 C -1.025,2.289 0,1.264 0,0"
                  style="fill:#ff3363;fill-opacity:1;fill-rule:nonzero;stroke:none" id="path582" />
            </g>
            <g id="g584" transform="translate(177.0391,332.0576)">
               <path
                  d="m 0,0 c 0,-1.265 -1.025,-2.29 -2.29,-2.29 -1.264,0 -2.289,1.025 -2.289,2.29 0,1.264 1.025,2.289 2.289,2.289 C -1.025,2.289 0,1.264 0,0"
                  style="fill:#ff3363;fill-opacity:1;fill-rule:nonzero;stroke:none" id="path586" />
            </g>
            <g id="g588" transform="translate(138.5522,322.2954)">
               <path
                  d="m 0,0 c 0,-1.265 -1.025,-2.29 -2.29,-2.29 -1.264,0 -2.289,1.025 -2.289,2.29 0,1.264 1.025,2.289 2.289,2.289 C -1.025,2.289 0,1.264 0,0"
                  style="fill:#ff3363;fill-opacity:1;fill-rule:nonzero;stroke:none" id="path590" />
            </g>
            <g id="g592" transform="translate(148.1738,322.2954)">
               <path
                  d="m 0,0 c 0,-1.265 -1.025,-2.29 -2.29,-2.29 -1.264,0 -2.289,1.025 -2.289,2.29 0,1.264 1.025,2.289 2.289,2.289 C -1.025,2.289 0,1.264 0,0"
                  style="fill:#ff3363;fill-opacity:1;fill-rule:nonzero;stroke:none" id="path594" />
            </g>
            <g id="g596" transform="translate(157.7954,322.2954)">
               <path
                  d="m 0,0 c 0,-1.265 -1.025,-2.29 -2.289,-2.29 -1.265,0 -2.29,1.025 -2.29,2.29 0,1.264 1.025,2.289 2.29,2.289 C -1.025,2.289 0,1.264 0,0"
                  style="fill:#ff3363;fill-opacity:1;fill-rule:nonzero;stroke:none" id="path598" />
            </g>
            <g id="g600" transform="translate(167.4175,322.2954)">
               <path
                  d="m 0,0 c 0,-1.265 -1.025,-2.29 -2.29,-2.29 -1.264,0 -2.289,1.025 -2.289,2.29 0,1.264 1.025,2.289 2.289,2.289 C -1.025,2.289 0,1.264 0,0"
                  style="fill:#ff3363;fill-opacity:1;fill-rule:nonzero;stroke:none" id="path602" />
            </g>
            <g id="g604" transform="translate(177.0391,322.2954)">
               <path
                  d="m 0,0 c 0,-1.265 -1.025,-2.29 -2.29,-2.29 -1.264,0 -2.289,1.025 -2.289,2.29 0,1.264 1.025,2.289 2.289,2.289 C -1.025,2.289 0,1.264 0,0"
                  style="fill:#ff3363;fill-opacity:1;fill-rule:nonzero;stroke:none" id="path606" />
            </g>
            <g id="g608" transform="translate(328.9736,204.7656)">
               <path
                  d="m 0,0 c 0,-1.264 -1.024,-2.289 -2.289,-2.289 -1.265,0 -2.289,1.025 -2.289,2.289 0,1.265 1.024,2.29 2.289,2.29 C -1.024,2.29 0,1.265 0,0"
                  style="fill:#ffffff;fill-opacity:1;fill-rule:nonzero;stroke:none" id="path610" />
            </g>
            <g id="g612" transform="translate(338.5957,204.7656)">
               <path
                  d="m 0,0 c 0,-1.264 -1.025,-2.289 -2.289,-2.289 -1.265,0 -2.29,1.025 -2.29,2.289 0,1.265 1.025,2.29 2.29,2.29 C -1.025,2.29 0,1.265 0,0"
                  style="fill:#ffffff;fill-opacity:1;fill-rule:nonzero;stroke:none" id="path614" />
            </g>
            <g id="g616" transform="translate(348.2178,204.7656)">
               <path
                  d="m 0,0 c 0,-1.264 -1.025,-2.289 -2.29,-2.289 -1.264,0 -2.289,1.025 -2.289,2.289 0,1.265 1.025,2.29 2.289,2.29 C -1.025,2.29 0,1.265 0,0"
                  style="fill:#ffffff;fill-opacity:1;fill-rule:nonzero;stroke:none" id="path618" />
            </g>
            <g id="g620" transform="translate(357.8389,204.7656)">
               <path
                  d="m 0,0 c 0,-1.264 -1.024,-2.289 -2.289,-2.289 -1.265,0 -2.289,1.025 -2.289,2.289 0,1.265 1.024,2.29 2.289,2.29 C -1.024,2.29 0,1.265 0,0"
                  style="fill:#ffffff;fill-opacity:1;fill-rule:nonzero;stroke:none" id="path622" />
            </g>
            <g id="g624" transform="translate(367.4609,204.7656)">
               <path
                  d="m 0,0 c 0,-1.264 -1.025,-2.289 -2.289,-2.289 -1.265,0 -2.29,1.025 -2.29,2.289 0,1.265 1.025,2.29 2.29,2.29 C -1.025,2.29 0,1.265 0,0"
                  style="fill:#ffffff;fill-opacity:1;fill-rule:nonzero;stroke:none" id="path626" />
            </g>
            <g id="g628" transform="translate(328.9736,195.0039)">
               <path
                  d="m 0,0 c 0,-1.265 -1.024,-2.289 -2.289,-2.289 -1.265,0 -2.289,1.024 -2.289,2.289 0,1.265 1.024,2.289 2.289,2.289 C -1.024,2.289 0,1.265 0,0"
                  style="fill:#ffffff;fill-opacity:1;fill-rule:nonzero;stroke:none" id="path630" />
            </g>
            <g id="g632" transform="translate(338.5957,195.0039)">
               <path
                  d="m 0,0 c 0,-1.265 -1.025,-2.289 -2.289,-2.289 -1.265,0 -2.29,1.024 -2.29,2.289 0,1.265 1.025,2.289 2.29,2.289 C -1.025,2.289 0,1.265 0,0"
                  style="fill:#ffffff;fill-opacity:1;fill-rule:nonzero;stroke:none" id="path634" />
            </g>
            <g id="g636" transform="translate(348.2178,195.0039)">
               <path
                  d="m 0,0 c 0,-1.265 -1.025,-2.289 -2.29,-2.289 -1.264,0 -2.289,1.024 -2.289,2.289 0,1.265 1.025,2.289 2.289,2.289 C -1.025,2.289 0,1.265 0,0"
                  style="fill:#ffffff;fill-opacity:1;fill-rule:nonzero;stroke:none" id="path638" />
            </g>
            <g id="g640" transform="translate(357.8389,195.0039)">
               <path
                  d="m 0,0 c 0,-1.265 -1.024,-2.289 -2.289,-2.289 -1.265,0 -2.289,1.024 -2.289,2.289 0,1.265 1.024,2.289 2.289,2.289 C -1.024,2.289 0,1.265 0,0"
                  style="fill:#ffffff;fill-opacity:1;fill-rule:nonzero;stroke:none" id="path642" />
            </g>
            <g id="g644" transform="translate(367.4609,195.0039)">
               <path
                  d="m 0,0 c 0,-1.265 -1.025,-2.289 -2.289,-2.289 -1.265,0 -2.29,1.024 -2.29,2.289 0,1.265 1.025,2.289 2.29,2.289 C -1.025,2.289 0,1.265 0,0"
                  style="fill:#ffffff;fill-opacity:1;fill-rule:nonzero;stroke:none" id="path646" />
            </g>
            <g id="g648" transform="translate(328.9736,233.0908)">
               <path
                  d="m 0,0 c 0,-1.264 -1.024,-2.289 -2.289,-2.289 -1.265,0 -2.289,1.025 -2.289,2.289 0,1.265 1.024,2.29 2.289,2.29 C -1.024,2.29 0,1.265 0,0"
                  style="fill:#ffffff;fill-opacity:1;fill-rule:nonzero;stroke:none" id="path650" />
            </g>
            <g id="g652" transform="translate(338.5957,233.0908)">
               <path
                  d="m 0,0 c 0,-1.264 -1.025,-2.289 -2.289,-2.289 -1.265,0 -2.29,1.025 -2.29,2.289 0,1.265 1.025,2.29 2.29,2.29 C -1.025,2.29 0,1.265 0,0"
                  style="fill:#ffffff;fill-opacity:1;fill-rule:nonzero;stroke:none" id="path654" />
            </g>
            <g id="g656" transform="translate(348.2178,233.0908)">
               <path
                  d="m 0,0 c 0,-1.264 -1.025,-2.289 -2.29,-2.289 -1.264,0 -2.289,1.025 -2.289,2.289 0,1.265 1.025,2.29 2.289,2.29 C -1.025,2.29 0,1.265 0,0"
                  style="fill:#ffffff;fill-opacity:1;fill-rule:nonzero;stroke:none" id="path658" />
            </g>
            <g id="g660" transform="translate(357.8389,233.0908)">
               <path
                  d="m 0,0 c 0,-1.264 -1.024,-2.289 -2.289,-2.289 -1.265,0 -2.289,1.025 -2.289,2.289 0,1.265 1.024,2.29 2.289,2.29 C -1.024,2.29 0,1.265 0,0"
                  style="fill:#ffffff;fill-opacity:1;fill-rule:nonzero;stroke:none" id="path662" />
            </g>
            <g id="g664" transform="translate(367.4609,233.0908)">
               <path
                  d="m 0,0 c 0,-1.264 -1.025,-2.289 -2.289,-2.289 -1.265,0 -2.29,1.025 -2.29,2.289 0,1.265 1.025,2.29 2.29,2.29 C -1.025,2.29 0,1.265 0,0"
                  style="fill:#ffffff;fill-opacity:1;fill-rule:nonzero;stroke:none" id="path666" />
            </g>
            <g id="g668" transform="translate(328.9736,223.3291)">
               <path
                  d="m 0,0 c 0,-1.265 -1.024,-2.29 -2.289,-2.29 -1.265,0 -2.289,1.025 -2.289,2.29 0,1.265 1.024,2.289 2.289,2.289 C -1.024,2.289 0,1.265 0,0"
                  style="fill:#ffffff;fill-opacity:1;fill-rule:nonzero;stroke:none" id="path670" />
            </g>
            <g id="g672" transform="translate(338.5957,223.3291)">
               <path
                  d="m 0,0 c 0,-1.265 -1.025,-2.29 -2.289,-2.29 -1.265,0 -2.29,1.025 -2.29,2.29 0,1.265 1.025,2.289 2.29,2.289 C -1.025,2.289 0,1.265 0,0"
                  style="fill:#ffffff;fill-opacity:1;fill-rule:nonzero;stroke:none" id="path674" />
            </g>
            <g id="g676" transform="translate(348.2178,223.3291)">
               <path
                  d="m 0,0 c 0,-1.265 -1.025,-2.29 -2.29,-2.29 -1.264,0 -2.289,1.025 -2.289,2.29 0,1.265 1.025,2.289 2.289,2.289 C -1.025,2.289 0,1.265 0,0"
                  style="fill:#ffffff;fill-opacity:1;fill-rule:nonzero;stroke:none" id="path678" />
            </g>
            <g id="g680" transform="translate(357.8389,223.3291)">
               <path
                  d="m 0,0 c 0,-1.265 -1.024,-2.29 -2.289,-2.29 -1.265,0 -2.289,1.025 -2.289,2.29 0,1.265 1.024,2.289 2.289,2.289 C -1.024,2.289 0,1.265 0,0"
                  style="fill:#ffffff;fill-opacity:1;fill-rule:nonzero;stroke:none" id="path682" />
            </g>
            <g id="g684" transform="translate(367.4609,223.3291)">
               <path
                  d="m 0,0 c 0,-1.265 -1.025,-2.29 -2.289,-2.29 -1.265,0 -2.29,1.025 -2.29,2.29 0,1.265 1.025,2.289 2.29,2.289 C -1.025,2.289 0,1.265 0,0"
                  style="fill:#ffffff;fill-opacity:1;fill-rule:nonzero;stroke:none" id="path686" />
            </g>
            <g id="g688" transform="translate(328.9736,213.5664)">
               <path
                  d="m 0,0 c 0,-1.264 -1.024,-2.289 -2.289,-2.289 -1.265,0 -2.289,1.025 -2.289,2.289 0,1.265 1.024,2.29 2.289,2.29 C -1.024,2.29 0,1.265 0,0"
                  style="fill:#ffffff;fill-opacity:1;fill-rule:nonzero;stroke:none" id="path690" />
            </g>
            <g id="g692" transform="translate(338.5957,213.5664)">
               <path
                  d="m 0,0 c 0,-1.264 -1.025,-2.289 -2.289,-2.289 -1.265,0 -2.29,1.025 -2.29,2.289 0,1.265 1.025,2.29 2.29,2.29 C -1.025,2.29 0,1.265 0,0"
                  style="fill:#ffffff;fill-opacity:1;fill-rule:nonzero;stroke:none" id="path694" />
            </g>
            <g id="g696" transform="translate(348.2178,213.5664)">
               <path
                  d="m 0,0 c 0,-1.264 -1.025,-2.289 -2.29,-2.289 -1.264,0 -2.289,1.025 -2.289,2.289 0,1.265 1.025,2.29 2.289,2.29 C -1.025,2.29 0,1.265 0,0"
                  style="fill:#ffffff;fill-opacity:1;fill-rule:nonzero;stroke:none" id="path698" />
            </g>
            <g id="g700" transform="translate(357.8389,213.5664)">
               <path
                  d="m 0,0 c 0,-1.264 -1.024,-2.289 -2.289,-2.289 -1.265,0 -2.289,1.025 -2.289,2.289 0,1.265 1.024,2.29 2.289,2.29 C -1.024,2.29 0,1.265 0,0"
                  style="fill:#ffffff;fill-opacity:1;fill-rule:nonzero;stroke:none" id="path702" />
            </g>
            <g id="g704" transform="translate(367.4609,213.5664)">
               <path
                  d="m 0,0 c 0,-1.264 -1.025,-2.289 -2.289,-2.289 -1.265,0 -2.29,1.025 -2.29,2.289 0,1.265 1.025,2.29 2.29,2.29 C -1.025,2.29 0,1.265 0,0"
                  style="fill:#ffffff;fill-opacity:1;fill-rule:nonzero;stroke:none" id="path706" />
            </g>
            <g id="g708" transform="translate(191.6099,214.0479)">
               <path d="M 0,0 H 147.356 L 0,-11.571 Z" style="fill:#97f2ed;fill-opacity:1;fill-rule:nonzero;stroke:none"
                  id="path710" />
            </g>
            <path d="M 339.521,422.794 H 192.166 V 214.047 h 147.355 z"
               style="fill:#ffffff;fill-opacity:1;fill-rule:nonzero;stroke:none" id="path712" />
            <g id="g714" transform="translate(305.8184,242.9727)">
               <path d="M 0,0 -10.367,-45.819 7.167,-33.148 24.563,-48.891 15.998,0 Z"
                  style="fill:#1476dd;fill-opacity:1;fill-rule:nonzero;stroke:none" id="path716" />
            </g>
            <g id="g718" transform="translate(317.0156,289.7554)">
               <path
                  d="m 0,0 v 0 c 1.445,3.324 6.41,2.269 6.379,-1.356 -0.025,-2.909 3.431,-4.447 5.575,-2.482 2.672,2.449 6.778,-0.535 5.275,-3.833 -1.206,-2.647 1.326,-5.458 4.083,-4.535 3.438,1.15 5.976,-3.246 3.261,-5.648 -2.178,-1.927 -1.01,-5.524 1.886,-5.803 3.607,-0.348 4.139,-5.395 0.682,-6.486 -2.775,-0.874 -3.17,-4.636 -0.638,-6.068 3.154,-1.786 1.586,-6.613 -2.016,-6.203 -2.889,0.33 -4.781,-2.946 -3.05,-5.285 2.155,-2.913 -1.241,-6.685 -4.364,-4.845 -2.507,1.476 -5.566,-0.748 -4.937,-3.587 0.784,-3.539 -3.853,-5.604 -5.957,-2.653 -1.69,2.368 -5.39,1.581 -5.969,-1.268 -0.724,-3.552 -5.799,-3.552 -6.522,0 -0.58,2.849 -4.28,3.636 -5.968,1.268 -2.106,-2.951 -6.742,-0.886 -5.958,2.653 0.63,2.839 -2.431,5.063 -4.937,3.587 -3.123,-1.84 -6.519,1.932 -4.363,4.845 1.729,2.339 -0.161,5.615 -3.052,5.285 -3.6,-0.41 -5.169,4.417 -2.014,6.203 2.531,1.432 2.135,5.194 -0.638,6.068 -3.457,1.091 -2.927,6.138 0.681,6.486 2.895,0.279 4.064,3.876 1.886,5.803 -2.715,2.402 -0.177,6.798 3.26,5.648 2.759,-0.923 5.29,1.888 4.084,4.535 -1.503,3.298 2.602,6.282 5.275,3.833 2.145,-1.965 5.601,-0.427 5.576,2.482 -0.033,3.625 4.932,4.68 6.377,1.356 1.161,-2.667 4.944,-2.667 6.103,0"
                  style="fill:#ffc952;fill-opacity:1;fill-rule:nonzero;stroke:none" id="path720" />
            </g>
            <g id="g722" transform="translate(339.5596,259.4038)">
               <path
                  d="m 0,0 c 0,-1.473 -0.119,-2.91 -0.368,-4.309 -2.044,-12.09 -12.56,-21.289 -25.23,-21.289 -2.413,0 -4.742,0.332 -6.952,0.958 -3.913,1.096 -7.44,3.102 -10.349,5.773 -2.202,2.017 -4.043,4.41 -5.424,7.09 -1.842,3.518 -2.873,7.532 -2.873,11.777 0,1.648 0.157,3.26 0.451,4.816 2.256,11.832 12.661,20.773 25.147,20.773 2.228,0 4.392,-0.285 6.454,-0.819 5.645,-1.464 10.526,-4.798 13.942,-9.31 1.795,-2.357 3.185,-5.037 4.079,-7.937 C -0.396,5.147 0,2.615 0,0"
                  style="fill:#ff3363;fill-opacity:1;fill-rule:nonzero;stroke:none" id="path724" />
            </g>
            <g id="g726" transform="translate(313.9648,275.9092)">
               <path
                  d="m 0,0 5.073,-10.279 11.344,-1.649 -8.209,-8.001 1.938,-11.299 -10.146,5.335 -10.146,-5.335 1.937,11.299 -8.209,8.001 11.345,1.649 z"
                  style="fill:#ffc952;fill-opacity:1;fill-rule:nonzero;stroke:none" id="path728" />
            </g>
            <g id="g730">
               <g id="g732" />
               <g id="g744">
                  <g clip-path="url(#clipPath736)" id="g742">
                     <g transform="translate(334.3574,274.8643)" id="g740">
                        <path
                           d="m 0,0 -43.121,-27.237 c -1.842,3.517 -2.873,7.532 -2.873,11.777 0,1.648 0.157,3.259 0.451,4.815 L -13.941,9.309 C -8.297,7.845 -3.416,4.512 0,0"
                           style="fill:#ffffff;fill-opacity:1;fill-rule:nonzero;stroke:none" id="path738" />
                     </g>
                  </g>
               </g>
            </g>
            <g id="g746">
               <g id="g748" />
               <g id="g760">
                  <g clip-path="url(#clipPath752)" id="g758">
                     <g transform="translate(339.5596,259.4038)" id="g756">
                        <path
                           d="M 0,0 C 0,-1.473 -0.119,-2.91 -0.368,-4.309 L -32.55,-24.64 c -3.913,1.096 -7.44,3.102 -10.349,5.773 L -1.123,7.523 C -0.396,5.147 0,2.615 0,0"
                           style="fill:#ffffff;fill-opacity:1;fill-rule:nonzero;stroke:none" id="path754" />
                     </g>
                  </g>
               </g>
            </g>
            <path d="m 275.785,238.476 h -70.634 v -0.95 h 70.634 z"
               style="fill:#ff3363;fill-opacity:1;fill-rule:nonzero;stroke:none" id="path762" />
            <g id="g764" transform="translate(256.5039,243.6953)">
               <path
                  d="m 0,0 c -0.488,1.544 0.432,3.087 1.377,4.242 0.983,1.201 2.142,2.25 3.43,3.115 0.577,0.389 1.468,1.1 2.172,0.619 C 7.579,7.567 7.668,6.76 7.477,6.115 7.257,5.374 6.756,4.738 6.283,4.14 5.829,3.563 5.342,3.012 4.827,2.488 3.529,1.168 2.043,0.033 0.437,-0.891 0.251,-0.617 0.102,-0.319 0,0 m -11.883,4.605 c 0.574,1.298 1.466,2.457 2.588,3.327 1.005,0.78 3.045,1.82 3.741,0.109 0.591,-1.455 -0.608,-3.038 -1.44,-4.138 -0.872,-1.154 -1.887,-2.195 -3.021,-3.093 -0.66,-0.525 -1.371,-1.004 -2.114,-1.439 -0.679,1.601 -0.467,3.628 0.246,5.234 M -25.204,1.329 c -0.401,1.522 0.12,3.088 0.875,4.41 0.752,1.314 1.78,2.589 2.954,3.551 0.562,0.461 1.178,0.854 1.86,1.111 0.376,0.143 0.874,0.323 1.234,0.05 0.3,-0.229 0.396,-0.674 0.353,-1.028 C -18.02,8.656 -18.551,7.938 -18.966,7.31 -19.35,6.729 -19.762,6.167 -20.2,5.625 c -1.405,-1.741 -3.081,-3.251 -4.939,-4.494 -0.021,0.067 -0.047,0.13 -0.065,0.198 m -14.573,3.397 c 0.7,2.8 2.666,5.316 5.016,6.939 0.573,0.396 1.297,0.946 2.019,0.982 0.894,0.044 1.206,-0.968 1.073,-1.689 -0.137,-0.738 -0.568,-1.413 -0.958,-2.041 -0.366,-0.586 -0.769,-1.15 -1.2,-1.69 -1.655,-2.079 -3.746,-3.796 -6.083,-5.06 -0.142,0.837 -0.078,1.713 0.133,2.559 M 15.47,2.769 C 13.314,0.554 10.654,-1.18 7.733,-2.199 6.172,-2.744 4.405,-3.092 2.784,-2.588 c -0.66,0.206 -1.291,0.573 -1.799,1.06 0.648,0.385 1.274,0.798 1.867,1.232 1.363,1.002 2.614,2.167 3.7,3.465 C 7.52,4.324 8.793,5.869 8.28,7.486 8.077,8.126 7.588,8.716 6.924,8.898 6.117,9.121 5.36,8.685 4.701,8.268 3.188,7.31 1.819,6.096 0.694,4.702 -0.351,3.409 -1.243,1.767 -0.858,0.054 c 0.108,-0.484 0.313,-0.93 0.581,-1.337 -0.684,-0.359 -1.385,-0.682 -2.103,-0.961 -2.374,-0.928 -5.368,-1.685 -7.787,-0.481 -0.688,0.343 -1.208,0.82 -1.584,1.381 2.704,1.551 5.202,3.86 6.631,6.632 0.676,1.31 0.869,3.216 -0.538,4.144 -1.404,0.925 -3.171,-0.055 -4.295,-0.976 -2.45,-2.009 -4.028,-5.437 -3.223,-8.605 0.079,-0.31 0.19,-0.605 0.321,-0.889 -1.672,-0.873 -3.496,-1.471 -5.35,-1.631 -2.504,-0.217 -5.42,0.707 -6.617,3.016 1.375,0.904 2.654,1.957 3.807,3.131 1.153,1.173 2.168,2.472 3.038,3.866 0.441,0.705 0.921,1.492 0.878,2.358 -0.035,0.687 -0.428,1.386 -1.098,1.625 -0.763,0.271 -1.649,-0.13 -2.32,-0.481 -0.727,-0.381 -1.372,-0.883 -1.965,-1.449 -1.268,-1.211 -2.414,-2.712 -3.1,-4.333 -0.587,-1.387 -0.779,-2.947 -0.27,-4.374 -0.293,-0.18 -0.577,-0.376 -0.878,-0.543 -2.642,-1.461 -5.955,-2.731 -9.002,-2.018 -1.324,0.309 -2.599,1.05 -3.407,2.158 -0.247,0.339 -0.432,0.7 -0.567,1.075 1.877,0.991 3.611,2.255 5.111,3.769 1.083,1.092 2.032,2.311 2.827,3.628 0.757,1.253 1.605,3.186 0.174,4.33 -1.343,1.076 -3.216,-0.39 -4.284,-1.228 -1.273,-0.998 -2.361,-2.214 -3.219,-3.585 -1.199,-1.917 -2.011,-4.334 -1.558,-6.489 -2.13,-1.042 -4.44,-1.717 -6.799,-1.951 -1.312,-0.13 -2.63,-0.12 -3.939,0.029 -0.523,0.061 -0.673,-0.746 -0.149,-0.806 3.816,-0.438 7.686,0.29 11.121,1.939 0.268,-0.713 0.692,-1.386 1.32,-1.984 2.672,-2.546 6.648,-2.124 9.835,-0.932 1.31,0.49 2.567,1.114 3.761,1.841 0.667,-1.207 1.751,-2.159 2.999,-2.739 3.194,-1.487 7.051,-0.474 10.04,1.074 0.496,-0.745 1.18,-1.356 2.01,-1.755 1.323,-0.638 2.865,-0.737 4.306,-0.58 2.212,0.24 4.402,1.043 6.398,2.133 0.458,-0.483 1.013,-0.88 1.611,-1.16 3.286,-1.534 7.364,0.326 10.189,2.073 1.482,0.917 2.836,2.024 4.05,3.272 0.369,0.379 -0.262,0.905 -0.628,0.528"
                  style="fill:#140b11;fill-opacity:1;fill-rule:nonzero;stroke:none" id="path766" />
            </g>
            <path d="M 332.808,385.806 H 198.881 v 32.253 h 133.927 z"
               style="fill:#ff3363;fill-opacity:1;fill-rule:nonzero;stroke:none" id="path768" />
            <g id="g770" transform="translate(216.5908,397.5879)">
               <path
                  d="m 0,0 v 9.682 c 0,2.445 1.672,4.142 4.142,4.142 2.47,0 4.143,-1.697 4.143,-4.142 V 7.636 H 5.689 v 2.046 c 0,1.023 -0.624,1.647 -1.522,1.647 -0.898,0 -1.522,-0.624 -1.522,-1.647 L 2.645,0 c 0,-1.023 0.624,-1.647 1.522,-1.647 0.898,0 1.522,0.624 1.522,1.647 V 2.495 H 8.285 V 0 C 8.285,-2.445 6.612,-4.142 4.142,-4.142 1.672,-4.142 0,-2.445 0,0"
                  style="fill:#ffffff;fill-opacity:1;fill-rule:nonzero;stroke:none" id="path772" />
            </g>
            <g id="g774" transform="translate(227.2974,411.1626)">
               <path
                  d="M 0,0 H 7.511 V -2.496 H 2.645 V -7.361 H 6.513 V -9.856 H 2.645 v -5.116 h 4.866 v -2.495 H 0 Z"
                  style="fill:#ffffff;fill-opacity:1;fill-rule:nonzero;stroke:none" id="path776" />
            </g>
            <g id="g778" transform="translate(239.6763,403.4023)">
               <path
                  d="m 0,0 h 1.372 c 1.024,0 1.623,0.599 1.623,1.622 v 2.021 c 0,1.023 -0.599,1.622 -1.623,1.622 H 0 Z M 3.294,-9.707 1.372,-2.496 H 0 V -9.707 H -2.645 V 7.76 H 1.497 C 4.018,7.76 5.64,6.113 5.64,3.593 V 1.671 c 0,-1.622 -0.675,-2.869 -1.822,-3.567 l 2.221,-7.811 z"
                  style="fill:#ffffff;fill-opacity:1;fill-rule:nonzero;stroke:none" id="path780" />
            </g>
            <g id="g782" transform="translate(246.9897,411.1626)">
               <path d="M 0,0 H 8.434 V -2.496 H 5.54 V -17.467 H 2.895 v 14.971 l -2.895,0 z"
                  style="fill:#ffffff;fill-opacity:1;fill-rule:nonzero;stroke:none" id="path784" />
            </g>
            <path d="m 257.472,411.163 h 2.645 v -17.467 h -2.645 z"
               style="fill:#ffffff;fill-opacity:1;fill-rule:nonzero;stroke:none" id="path786" />
            <g id="g788" transform="translate(263.0117,411.1626)">
               <path d="m 0,0 h 7.386 v -2.496 h -4.74 v -5.115 h 3.742 v -2.495 H 2.646 v -7.361 H 0 Z"
                  style="fill:#ffffff;fill-opacity:1;fill-rule:nonzero;stroke:none" id="path790" />
            </g>
            <path d="m 272.445,411.163 h 2.646 v -17.467 h -2.646 z"
               style="fill:#ffffff;fill-opacity:1;fill-rule:nonzero;stroke:none" id="path792" />
            <g id="g794" transform="translate(277.7607,397.5879)">
               <path
                  d="m 0,0 v 9.682 c 0,2.445 1.672,4.142 4.143,4.142 2.47,0 4.142,-1.697 4.142,-4.142 V 7.636 H 5.689 v 2.046 c 0,1.023 -0.624,1.647 -1.522,1.647 -0.897,0 -1.521,-0.624 -1.521,-1.647 V 0 c 0,-1.023 0.624,-1.647 1.521,-1.647 0.898,0 1.522,0.624 1.522,1.647 V 2.495 H 8.285 V 0 C 8.285,-2.445 6.613,-4.142 4.143,-4.142 1.672,-4.142 0,-2.445 0,0"
                  style="fill:#ffffff;fill-opacity:1;fill-rule:nonzero;stroke:none" id="path796" />
            </g>
            <g id="g798" transform="translate(293.334,400.1084)">
               <path
                  d="M 0,0 -1.073,7.311 -2.146,0 Z M 0.349,-2.546 H -2.495 L -3.069,-6.413 H -5.715 L -2.82,11.054 H 0.724 L 3.618,-6.413 H 0.923 Z"
                  style="fill:#ffffff;fill-opacity:1;fill-rule:nonzero;stroke:none" id="path800" />
            </g>
            <g id="g802" transform="translate(297.1045,411.1626)">
               <path d="M 0,0 H 8.434 V -2.496 H 5.539 V -17.467 H 2.895 v 14.971 l -2.895,0 z"
                  style="fill:#ffffff;fill-opacity:1;fill-rule:nonzero;stroke:none" id="path804" />
            </g>
            <g id="g806" transform="translate(307.585,411.1626)">
               <path
                  d="M 0,0 H 7.512 V -2.496 H 2.646 V -7.361 H 6.514 V -9.856 H 2.646 v -5.116 h 4.866 v -2.495 H 0 Z"
                  style="fill:#ffffff;fill-opacity:1;fill-rule:nonzero;stroke:none" id="path808" />
            </g>
            <path d="M 332.032,372.751 H 199.655 v 3.584 h 132.377 z"
               style="fill:#dae6e8;fill-opacity:1;fill-rule:nonzero;stroke:none" id="path810" />
            <path d="M 332.032,360.364 H 199.655 v 3.584 h 132.377 z"
               style="fill:#dae6e8;fill-opacity:1;fill-rule:nonzero;stroke:none" id="path812" />
            <path d="M 332.032,347.719 H 199.655 v 3.584 h 132.377 z"
               style="fill:#dae6e8;fill-opacity:1;fill-rule:nonzero;stroke:none" id="path814" />
            <path d="M 332.032,335.332 H 199.655 v 3.583 h 132.377 z"
               style="fill:#dae6e8;fill-opacity:1;fill-rule:nonzero;stroke:none" id="path816" />
            <path d="M 332.893,322.965 H 200.517 v 3.583 h 132.376 z"
               style="fill:#dae6e8;fill-opacity:1;fill-rule:nonzero;stroke:none" id="path818" />
            <path d="m 258.794,310.578 h -58.278 v 3.583 h 58.278 z"
               style="fill:#dae6e8;fill-opacity:1;fill-rule:nonzero;stroke:none" id="path820" />
            <path d="M 332.893,300.102 H 200.517 v 3.583 h 132.376 z"
               style="fill:#ff3363;fill-opacity:1;fill-rule:nonzero;stroke:none" id="path822" />
            <path d="m 258.794,287.715 h -58.278 v 3.583 h 58.278 z"
               style="fill:#ff3363;fill-opacity:1;fill-rule:nonzero;stroke:none" id="path824" />
            <path d="m 258.794,276.784 h -58.278 v 3.584 h 58.278 z"
               style="fill:#ff3363;fill-opacity:1;fill-rule:nonzero;stroke:none" id="path826" />
            <g id="g828" transform="translate(120.4976,174.627)">
               <path d="M 0,0 H 61.558 L 75.38,78.841 H 24.313 Z"
                  style="fill:#1476dd;fill-opacity:1;fill-rule:nonzero;stroke:none" id="path830" />
            </g>
            <g id="g832" transform="translate(142.1709,244.9082)">
               <path d="m 0,0 -5.085,-16.491 54.936,3.055 1.738,9.916 z"
                  style="fill:#ffc952;fill-opacity:1;fill-rule:nonzero;stroke:none" id="path834" />
            </g>
            <g id="g836" transform="translate(192.126,253.4658)">
               <path d="M 0,0 V 9.732 C 21.934,24.456 12.67,47.365 11.399,50.22 12.882,47.126 24.641,20.349 0,0"
                  style="fill:#dddddd;fill-opacity:1;fill-rule:nonzero;stroke:none" id="path838" />
            </g>
            <g id="g840" transform="translate(215.3301,320.877)">
               <path
                  d="m 0,0 c -5.377,-9.217 -11.942,-16.896 -11.942,-16.896 0,0 0.055,-0.102 0.137,-0.295 1.271,-2.855 10.534,-25.764 -11.399,-40.488 -0.598,-0.404 -1.225,-0.8 -1.879,-1.196 l -1.703,-8.536 h -37.715 l 10.404,20.312 c 0,0 4.015,50.598 9.558,55.801 5.543,5.202 21.335,12.117 21.335,12.117 V -3.582 c 0,0 13.48,17.145 19.447,24.401 C 2.219,28.066 5.377,9.208 0,0"
                  style="fill:#ffc0cb;fill-opacity:1;fill-rule:nonzero;stroke:none" id="path842" />
            </g>
            <g id="g844">
               <g id="g846" />
               <g id="g858">
                  <g clip-path="url(#clipPath850)" id="g856">
                     <g transform="translate(192.1235,317.2905)" id="g854">
                        <path d="M 0,0 -7.667,-7.38 0,24.403 Z"
                           style="fill:#000000;fill-opacity:1;fill-rule:nonzero;stroke:none" id="path852" />
                     </g>
                  </g>
               </g>
            </g>
            <g id="g860">
               <g id="g862" />
               <g id="g874">
                  <g clip-path="url(#clipPath866)" id="g872">
                     <g transform="translate(206.0327,333.0928)" id="g870">
                        <path
                           d="m 0,0 c -0.17,-0.974 -0.433,-1.901 -0.42,-2.747 -0.016,-0.832 0.256,-1.54 0.667,-1.97 0.426,-0.394 0.751,-0.412 1.323,-0.269 0.58,0.171 1.235,0.572 1.908,1.107 1.333,1.031 2.516,2.276 3.531,3.703 C 8.031,1.252 8.867,2.848 9.604,4.672 10.019,2.736 9.705,0.655 8.914,-1.221 8.115,-3.1 6.816,-4.799 5.16,-6.069 4.351,-6.682 3.368,-7.324 2.091,-7.548 1.455,-7.651 0.701,-7.632 0.02,-7.332 c -0.693,0.278 -1.242,0.831 -1.566,1.402 -0.643,1.151 -0.599,2.469 -0.193,3.467 C -1.322,-1.458 -0.703,-0.691 0,0"
                           style="fill:#000000;fill-opacity:1;fill-rule:nonzero;stroke:none" id="path868" />
                     </g>
                  </g>
               </g>
            </g>
            <g id="g876">
               <g id="g878" />
               <g id="g890">
                  <g clip-path="url(#clipPath882)" opacity="0.429993" id="g888">
                     <g transform="translate(195.8774,253.4678)" id="g886">
                        <path d="m 0,0 -75.38,-78.841 h 61.558 z"
                           style="fill:#000000;fill-opacity:1;fill-rule:nonzero;stroke:none" id="path884" />
                     </g>
                  </g>
               </g>
            </g>
         </g>
      </g>
   </g>
</svg>