<svg width="34" height="35" viewBox="0 0 34 35" fill="none" xmlns="http://www.w3.org/2000/svg">
<path d="M22.0436 9.68801L19.2826 15.4487C19.659 16.2084 20.0325 16.9686 20.4061 17.7298C20.5801 18.0846 20.7544 18.4395 20.9293 18.7943L21.3594 19.6692C22.0933 21.1613 22.8276 22.6534 23.5628 24.1445C23.8448 24.716 24.1273 25.2869 24.4098 25.8584C25.0079 27.0678 25.6263 28.3159 26.229 29.5482C26.2345 29.5591 26.2401 29.5772 26.2456 29.5772H12.1181L9.87195 34.0979H33.9999L22.0436 9.68801Z" fill="url(#paint0_linear_309_27)"/>
<path d="M19.8821 6.00812L17.0242 0.0983572L14.1708 5.97622L17.0242 11.9179L19.8821 6.00812Z" fill="url(#paint1_linear_309_27)"/>
<path d="M17.0341 21.559L11.6829 21.6069H11.6777C11.6961 21.6069 11.7148 21.5566 11.7344 21.5206C11.7686 21.4568 11.8025 21.4032 11.834 21.3386C12.6582 19.6496 13.502 17.9401 14.3178 16.2821L14.6117 15.6871L14.211 14.852C14.2114 14.8512 14.2126 14.8499 14.2126 14.8499C14.2126 14.8499 14.1875 14.8005 14.1432 14.7117L11.84 9.90676L0 34.0984H5.00389L4.9995 34.0031L5.00389 34.0984H5.00588H5.58686C5.61118 34.0031 5.63511 33.9978 5.65584 33.9528C5.89549 33.4477 6.14749 32.9357 6.39113 32.4416C6.48563 32.2494 6.58054 32.0568 6.67504 31.8638L7.34853 30.4896C7.85932 29.4476 8.36972 28.406 8.88091 27.3643L8.93514 27.2424C9.08467 26.9369 9.23819 26.6511 9.43158 26.2941H13.7476H19.2252L17.0341 21.559Z" fill="url(#paint2_linear_309_27)"/>
<defs>
<linearGradient id="paint0_linear_309_27" x1="59.8887" y1="-31.8685" x2="107.741" y2="-31.8685" gradientUnits="userSpaceOnUse">
<stop stop-color="#F23827"/>
<stop offset="0.515464" stop-color="#FCDC85"/>
<stop offset="1" stop-color="#64411A"/>
</linearGradient>
<linearGradient id="paint1_linear_309_27" x1="67.7789" y1="-62.561" x2="79.0408" y2="-62.561" gradientUnits="userSpaceOnUse">
<stop stop-color="#F23827"/>
<stop offset="0.515464" stop-color="#FCDC85"/>
<stop offset="1" stop-color="#64411A"/>
</linearGradient>
<linearGradient id="paint2_linear_309_27" x1="29.4695" y1="-17.2233" x2="62.5153" y2="-17.2233" gradientUnits="userSpaceOnUse">
<stop stop-color="#F23827"/>
<stop offset="0.515464" stop-color="#FCDC85"/>
<stop offset="1" stop-color="#64411A"/>
</linearGradient>
</defs>
</svg>
