<svg width="514" height="411" viewBox="0 0 514 411" fill="none" xmlns="http://www.w3.org/2000/svg">
  <g clip-path="url(#clip0_15_37)">
    <path
      d="M179.116 94.5855L143.539 73.8635C140.75 72.239 136.227 72.239 133.438 73.8635L96.3343 95.4746C93.5451 97.0992 93.5451 99.7331 96.3343 101.358L131.912 122.08C134.701 123.704 139.223 123.704 142.012 122.08L179.116 100.469C181.905 98.844 181.905 96.21 179.116 94.5855Z"
      stroke="#8625D2" stroke-width="2" />
    <path
      d="M87.6221 297.864C103.143 288.824 103.143 274.167 87.6221 265.126C72.1008 256.086 46.9358 256.086 31.4145 265.126L29.5468 266.214C14.0255 275.255 14.0255 289.912 29.5468 298.952C45.0681 307.993 70.2332 307.993 85.7545 298.952L87.6221 297.864Z"
      stroke="#8625D2" stroke-width="2" />
    <path
      d="M214.384 278.103L137.325 324.751C137.325 324.751 133.16 326.852 129.411 324.751C125.663 322.649 85.6755 299.536 85.6755 299.536"
      stroke="#8625D2" stroke-width="2" />
    <path
      d="M400.07 263.546L235.89 167.92C233.1 166.295 228.578 166.295 225.789 167.92L130.49 223.426C127.701 225.051 127.701 227.685 130.49 229.309L294.671 324.936C297.46 326.56 301.982 326.56 304.771 324.936L400.07 269.429C402.859 267.805 402.859 265.171 400.07 263.546Z"
      stroke="#8625D2" stroke-width="2" />
    <path
      d="M214.097 279.883C215.017 279.883 215.763 279.131 215.763 278.202C215.763 277.274 215.017 276.521 214.097 276.521C213.177 276.521 212.431 277.274 212.431 278.202C212.431 279.131 213.177 279.883 214.097 279.883Z"
      fill="#8625D2" />
    <path
      d="M243.125 294.493C243.125 294.493 209.803 318.447 203.971 323.07C198.14 327.692 203.971 331.474 203.971 331.474C203.971 331.474 323.1 402.076 333.513 407.119C343.925 412.162 352.257 407.119 352.257 407.119L447.772 346.702"
      stroke="#8625D2" stroke-width="2" />
    <g filter="url(#filter0_d_15_37)">
      <path d="M252.002 359.73L244.087 355.107" stroke="#FF508F" stroke-width="4" stroke-linecap="round"
        stroke-linejoin="round" />
    </g>
    <path
      d="M41.6597 265.179C50.8239 259.86 65.7007 259.86 74.8649 265.179C76.2508 265.967 77.5274 266.934 78.6617 268.055C83.8393 262.858 82.5966 256.066 74.9166 251.613C65.7524 246.294 50.8757 246.294 41.7115 251.613C33.9625 256.014 32.7199 262.858 37.9146 268.055C39.026 266.929 40.2862 265.962 41.6597 265.179Z"
      fill="#4F4B63" />
    <path
      d="M93.677 261.246C91.8418 259.554 89.8216 258.078 87.6532 256.846C83.7977 254.668 79.6717 253.014 75.3829 251.924C83.926 257.365 83.667 265.786 74.589 270.983C65.2522 276.406 50.0993 276.406 40.7452 270.983C32.0643 265.977 31.443 257.937 39.1057 252.462C35.5374 253.507 32.1027 254.966 28.8715 256.811C26.7038 258.043 24.6829 259.52 22.8483 261.212H16.687V273.842C16.687 280.01 20.7428 286.179 28.8715 290.891C45.0944 300.299 71.4134 300.299 87.6532 290.891C95.7647 286.179 99.8384 280.01 99.8384 273.842V261.246H93.677Z"
      fill="#1B181F" />
    <path
      d="M87.6533 245.254C71.4134 235.846 45.0943 235.846 28.8714 245.254C12.6485 254.662 12.6313 269.927 28.8714 279.335C45.1116 288.743 71.4134 288.743 87.6533 279.335C103.894 269.927 103.894 254.662 87.6533 245.254ZM74.8823 272.11C65.5455 277.516 50.3927 277.516 41.0386 272.11C31.6846 266.704 31.7018 257.902 41.0386 252.462C50.3753 247.022 65.5455 247.056 74.8823 252.462C84.2195 257.868 84.2361 266.687 74.8823 272.11Z"
      fill="#1E1B22" />
    <path
      d="M87.6532 278.035C71.4134 287.444 45.0943 287.444 28.8714 278.035C21.0361 273.496 16.9803 267.64 16.7905 261.645C16.4109 268.055 20.4665 274.466 28.8714 279.335C45.0943 288.743 71.4134 288.743 87.6532 279.335C96.0588 274.466 100.114 268.021 99.7343 261.645C99.5443 267.588 95.489 273.496 87.6532 278.035Z"
      fill="#1E1B22" />
    <path
      d="M74.8823 251.18C65.5455 245.774 50.3926 245.774 41.0385 251.18C36.0853 254.056 33.7555 257.885 34.1351 261.576C34.3941 258.249 36.7239 254.957 41.0385 252.41C50.3926 247.004 65.5455 247.004 74.8823 252.41C79.2659 254.957 81.5957 258.249 81.7856 261.576C82.1135 257.885 79.8526 254.056 74.8823 251.18Z"
      fill="#1E1B22" />
    <path
      d="M85.7722 245.237C70.6539 236.574 46.078 236.574 31.0459 245.237C16.0139 253.9 15.9276 268.212 31.0459 276.961C46.1643 285.711 70.7402 285.728 85.7722 276.961C100.804 268.194 100.891 254.004 85.7722 245.237ZM74.7442 270.585C65.718 275.783 51.0829 275.783 42.0568 270.585C33.0306 265.387 33.0306 256.862 42.0568 251.63C51.0829 246.397 65.718 246.433 74.7442 251.63C83.7703 256.828 83.8395 265.352 74.7442 270.585Z"
      fill="#1E1B22" />
    <path opacity="0.4"
      d="M58.4008 274.501C71.1634 274.501 81.5098 268.504 81.5098 261.108C81.5098 253.711 71.1634 247.715 58.4008 247.715C45.638 247.715 35.2917 253.711 35.2917 261.108C35.2917 268.504 45.638 274.501 58.4008 274.501Z"
      fill="#8625D2" />
    <path style="mix-blend-mode:lighten" opacity="0.5"
      d="M81.5098 260.848V139.843H35.2917V261.003C35.2917 264.469 37.4835 267.934 42.0397 270.585C51.0659 275.783 65.7011 275.783 74.7272 270.585C79.3697 267.9 81.6133 264.365 81.5098 260.848Z"
      fill="url(#paint0_linear_15_37)" />
    <path opacity="0.4"
      d="M75.4518 212.369C75.4518 212.643 75.3708 212.911 75.2191 213.139C75.0674 213.367 74.8518 213.545 74.5994 213.65C74.3472 213.754 74.0696 213.782 73.8018 213.728C73.534 213.675 73.288 213.543 73.0949 213.349C72.9018 213.155 72.7702 212.909 72.717 212.64C72.6637 212.371 72.6911 212.092 72.7955 211.839C72.9 211.586 73.077 211.369 73.304 211.217C73.5311 211.065 73.798 210.983 74.0711 210.983C74.4373 210.983 74.7885 211.13 75.0474 211.389C75.3063 211.649 75.4518 212.002 75.4518 212.369Z"
      fill="#8625D2" />
    <path opacity="0.4"
      d="M51.3073 148.956C51.3073 149.23 51.2263 149.498 51.0745 149.726C50.9228 149.954 50.7072 150.132 50.455 150.236C50.2026 150.341 49.9251 150.369 49.6572 150.315C49.3894 150.262 49.1434 150.13 48.9503 149.936C48.7572 149.742 48.6257 149.495 48.5724 149.227C48.5192 148.958 48.5465 148.679 48.651 148.426C48.7555 148.172 48.9325 147.956 49.1595 147.804C49.3866 147.651 49.6535 147.57 49.9265 147.57C50.1079 147.57 50.2874 147.605 50.455 147.675C50.6224 147.745 50.7746 147.847 50.9028 147.976C51.031 148.105 51.1327 148.258 51.2021 148.426C51.2715 148.594 51.3073 148.774 51.3073 148.956Z"
      fill="#8625D2" />
    <path opacity="0.4"
      d="M53.9997 196.343C53.9997 196.747 53.8803 197.142 53.6565 197.478C53.4328 197.815 53.1147 198.077 52.7426 198.231C52.3704 198.386 51.961 198.426 51.5659 198.348C51.1709 198.269 50.808 198.074 50.5232 197.788C50.2385 197.503 50.0444 197.138 49.9659 196.741C49.8873 196.345 49.9276 195.934 50.0818 195.56C50.2359 195.186 50.497 194.868 50.8318 194.643C51.1667 194.418 51.5604 194.298 51.9632 194.298C52.5034 194.298 53.0214 194.514 53.4033 194.897C53.7851 195.28 53.9997 195.801 53.9997 196.343Z"
      fill="#8625D2" />
    <path opacity="0.8"
      d="M50.3062 231.272C50.3016 231.655 50.1469 232.021 49.8755 232.29C49.6042 232.56 49.238 232.71 48.8565 232.71C48.4766 232.71 48.1123 232.559 47.8436 232.289C47.575 232.019 47.4241 231.654 47.4241 231.272C47.4241 230.889 47.5744 230.521 47.8425 230.249C48.1107 229.977 48.4751 229.821 48.8565 229.817C49.2396 229.821 49.6058 229.976 49.8767 230.248C50.1475 230.52 50.3017 230.888 50.3062 231.272Z"
      fill="#8625D2" />
    <path opacity="0.8"
      d="M70.8093 172.762C70.8093 173.35 70.5765 173.914 70.1622 174.33C69.7479 174.746 69.1861 174.979 68.6002 174.979C68.0143 174.979 67.4524 174.746 67.0382 174.33C66.6239 173.914 66.3911 173.35 66.3911 172.762C66.3911 172.174 66.6239 171.61 67.0382 171.194C67.4524 170.778 68.0143 170.544 68.6002 170.544C69.1861 170.544 69.7479 170.778 70.1622 171.194C70.5765 171.61 70.8093 172.174 70.8093 172.762Z"
      fill="#8625D2" />
    <path opacity="0.8"
      d="M69.0834 179.987C69.0868 180.286 69.0013 180.58 68.8376 180.831C68.674 181.081 68.4396 181.277 68.1645 181.393C67.8895 181.51 67.5861 181.541 67.2933 181.483C67.0005 181.426 66.7313 181.282 66.5203 181.07C66.3093 180.859 66.1659 180.588 66.1085 180.294C66.0512 180 66.0824 179.695 66.1982 179.42C66.314 179.143 66.5091 178.908 66.7586 178.744C67.0082 178.579 67.3008 178.493 67.5992 178.497C67.7947 178.494 67.9888 178.531 68.17 178.605C68.3511 178.68 68.5156 178.789 68.6539 178.928C68.7922 179.067 68.9014 179.232 68.9752 179.414C69.0489 179.596 69.0857 179.79 69.0834 179.987Z"
      fill="#8625D2" />
    <path
      d="M513.87 331.871V319.677L511.662 318.437C511.038 322.249 506.602 324.75 502.897 325.271L477.636 340.18L466.627 344.191L431.444 325.883L432.263 325.397C429.253 323.976 427.631 320.739 426.01 317.79L423.641 319.156L422.233 319.606V331.997C422.319 332.936 422.651 333.834 423.196 334.599C423.742 335.364 424.479 335.969 425.333 336.349L460.57 356.924C462.888 358.112 465.452 358.731 468.052 358.731C470.652 358.731 473.216 358.112 475.534 356.924L510.771 336.349C511.609 335.966 512.335 335.37 512.877 334.62C513.42 333.871 513.763 332.992 513.87 332.07C513.87 332.07 513.87 331.925 513.87 331.871Z"
      fill="#1B181F" />
    <path
      d="M513.87 321.045V312.969L511.662 311.746C511.038 315.541 506.602 318.041 502.897 318.563L477.636 333.544L466.627 337.501L431.444 319.156L432.263 318.67C429.253 317.358 427.578 314.031 426.01 311.081L423.641 312.502L422.233 312.897V321.17C422.319 322.109 422.651 323.007 423.196 323.772C423.742 324.538 424.479 325.142 425.333 325.523L460.57 346.133C462.888 347.321 465.452 347.94 468.052 347.94C470.652 347.94 473.216 347.321 475.534 346.133L510.771 325.523C511.609 325.139 512.335 324.544 512.877 323.793C513.42 323.043 513.763 322.165 513.87 321.242C513.87 321.242 513.87 321.099 513.87 321.045Z"
      fill="#1B181F" />
    <path opacity="0.3"
      d="M502.897 318.563L477.636 333.544L468.052 337.141V347.931C470.657 347.986 473.232 347.366 475.534 346.133L510.77 325.523C511.608 325.139 512.334 324.543 512.877 323.793C513.42 323.043 513.763 322.165 513.87 321.242C513.87 321.242 513.87 321.099 513.87 321.045V312.969L511.839 311.836H511.626C510.948 315.559 506.567 318.059 502.897 318.563Z"
      fill="#1B181F" />
    <path
      d="M432.263 318.689L465.647 299.229C466.391 298.852 467.211 298.657 468.043 298.657C468.875 298.657 469.695 298.852 470.439 299.229L503.254 318.347L502.897 318.563C506.602 318.041 511.038 315.541 511.662 311.746L474.839 291.064L464.15 288.204L455.44 293.384L426.01 311.081C427.578 314.031 429.253 317.358 432.263 318.689Z"
      fill="#4F4B63" />
    <path opacity="0.3"
      d="M468.052 289.247L464.115 288.204L455.404 293.384L426.01 311.081C427.578 314.031 429.253 317.358 432.263 318.689L465.647 299.229C466.389 298.837 467.215 298.64 468.052 298.653V289.247Z"
      fill="#1E1B22" />
    <path
      d="M460.57 337.878L425.333 317.358C421.2 314.948 421.2 311.045 425.333 308.635L460.57 288.078C462.888 286.891 465.452 286.271 468.052 286.271C470.652 286.271 473.216 286.891 475.534 288.078L510.771 308.617C514.868 311.027 514.868 314.929 510.771 317.358L475.534 337.878C473.216 339.067 470.652 339.685 468.052 339.685C465.452 339.685 462.888 339.067 460.57 337.878ZM470.439 291.118C469.695 290.742 468.875 290.545 468.043 290.545C467.211 290.545 466.391 290.742 465.647 291.118L430.411 311.584C430.123 311.685 429.874 311.873 429.698 312.123C429.522 312.373 429.427 312.672 429.427 312.979C429.427 313.285 429.522 313.585 429.698 313.834C429.874 314.084 430.123 314.272 430.411 314.372L465.647 334.91C466.391 335.287 467.211 335.484 468.043 335.484C468.875 335.484 469.695 335.287 470.439 334.91L505.676 314.372C505.963 314.272 506.212 314.084 506.388 313.834C506.565 313.585 506.659 313.285 506.659 312.979C506.659 312.672 506.565 312.373 506.388 312.123C506.212 311.873 505.963 311.685 505.676 311.584L470.439 291.118Z"
      fill="#1E1B22" />
    <path
      d="M505.676 311.584L470.439 291.046C469.695 290.669 468.875 290.474 468.043 290.474C467.211 290.474 466.39 290.669 465.646 291.046L430.41 311.584C429.537 312.089 429.234 312.826 429.537 313.383C429.731 313.005 430.036 312.698 430.41 312.502L465.646 292.053C466.39 291.676 467.211 291.481 468.043 291.481C468.875 291.481 469.695 291.676 470.439 292.053L505.676 312.592C506.054 312.788 506.365 313.095 506.567 313.473C506.852 312.826 506.567 312.089 505.676 311.584Z"
      fill="#1E1B22" />
    <path
      d="M510.771 317.358L475.534 337.878C473.216 339.067 470.652 339.685 468.052 339.685C465.452 339.685 462.888 339.067 460.57 337.878L425.333 317.358C424.554 316.996 423.868 316.457 423.33 315.783C422.793 315.109 422.417 314.318 422.233 313.473C422.193 314.503 422.464 315.522 423.012 316.393C423.559 317.263 424.357 317.945 425.297 318.347L460.57 338.94C462.888 340.127 465.452 340.747 468.052 340.747C470.652 340.747 473.216 340.127 475.534 338.94L510.771 318.347C511.712 317.947 512.508 317.265 513.053 316.394C513.598 315.522 513.864 314.502 513.817 313.473C513.638 314.312 513.269 315.1 512.741 315.773C512.213 316.446 511.539 316.989 510.771 317.358Z"
      fill="#1E1B22" />
    <path
      d="M461.568 337.302L426.331 316.764C422.768 314.678 422.768 311.369 426.331 309.192L461.568 288.583C463.576 287.546 465.797 287.007 468.052 287.007C470.307 287.007 472.528 287.546 474.536 288.583L509.773 309.192C513.336 311.279 513.336 314.678 509.773 316.764L474.536 337.302C472.528 338.338 470.307 338.878 468.052 338.878C465.797 338.878 463.576 338.338 461.568 337.302ZM471.436 290.543C470.386 290.001 469.223 289.719 468.043 289.719C466.864 289.719 465.7 290.001 464.649 290.543L429.359 311.009C428.954 311.152 428.604 311.418 428.356 311.771C428.108 312.124 427.975 312.546 427.975 312.979C427.975 313.411 428.108 313.833 428.356 314.186C428.604 314.539 428.954 314.805 429.359 314.948L464.649 335.486C465.7 336.027 466.864 336.31 468.043 336.31C469.223 336.31 470.386 336.027 471.436 335.486L506.673 314.948C507.078 314.805 507.429 314.539 507.676 314.186C507.924 313.833 508.058 313.411 508.058 312.979C508.058 312.546 507.924 312.124 507.676 311.771C507.429 311.418 507.078 311.152 506.673 311.009L471.436 290.543Z"
      fill="#1E1B22" />
    <path opacity="0.4"
      d="M470.439 291.046C469.695 290.669 468.875 290.474 468.043 290.474C467.211 290.474 466.39 290.669 465.646 291.046L430.41 311.584C430.123 311.685 429.874 311.873 429.697 312.123C429.521 312.373 429.427 312.672 429.427 312.979C429.427 313.285 429.521 313.585 429.697 313.834C429.874 314.084 430.123 314.272 430.41 314.372L465.646 334.91C466.39 335.287 467.211 335.484 468.043 335.484C468.875 335.484 469.695 335.287 470.439 334.91L505.676 314.372C505.963 314.272 506.212 314.084 506.388 313.834C506.564 313.585 506.659 313.285 506.659 312.979C506.659 312.672 506.564 312.373 506.388 312.123C506.212 311.873 505.963 311.685 505.676 311.584L470.439 291.046Z"
      fill="#8625D2" />
    <path style="mix-blend-mode:lighten" opacity="0.5"
      d="M506.673 312.952V186.07H429.359V312.952C429.374 313.257 429.474 313.552 429.647 313.803C429.821 314.054 430.061 314.251 430.339 314.372L465.646 334.91C466.39 335.287 467.211 335.484 468.043 335.484C468.875 335.484 469.695 335.287 470.439 334.91L505.676 314.372C505.948 314.24 506.182 314.04 506.356 313.792C506.531 313.543 506.64 313.254 506.673 312.952Z"
      fill="url(#paint1_linear_15_37)" />
    <path opacity="0.4"
      d="M481.987 234.987C481.987 234.713 481.905 234.445 481.754 234.217C481.602 233.988 481.386 233.811 481.134 233.706C480.882 233.601 480.604 233.574 480.337 233.627C480.069 233.681 479.823 233.813 479.63 234.007C479.436 234.2 479.305 234.447 479.252 234.716C479.199 234.985 479.226 235.264 479.33 235.517C479.435 235.77 479.612 235.987 479.839 236.139C480.066 236.291 480.333 236.373 480.606 236.373C480.972 236.373 481.323 236.227 481.582 235.967C481.841 235.707 481.987 235.354 481.987 234.987Z"
      fill="#8625D2" />
    <path opacity="0.4"
      d="M457.842 298.4C457.842 298.126 457.761 297.858 457.61 297.63C457.457 297.403 457.242 297.224 456.99 297.119C456.738 297.015 456.46 296.987 456.192 297.041C455.925 297.094 455.678 297.226 455.486 297.42C455.292 297.614 455.161 297.861 455.107 298.13C455.054 298.399 455.082 298.678 455.186 298.931C455.291 299.184 455.467 299.4 455.695 299.553C455.921 299.705 456.189 299.786 456.462 299.786C456.643 299.786 456.823 299.751 456.99 299.681C457.157 299.611 457.31 299.509 457.437 299.38C457.566 299.252 457.667 299.099 457.737 298.931C457.806 298.763 457.842 298.583 457.842 298.4Z"
      fill="#8625D2" />
    <path opacity="0.4"
      d="M460.535 251.013C460.535 250.609 460.415 250.214 460.192 249.878C459.967 249.542 459.649 249.279 459.278 249.125C458.905 248.97 458.496 248.929 458.101 249.008C457.706 249.087 457.343 249.282 457.058 249.568C456.773 249.854 456.579 250.218 456.501 250.614C456.422 251.011 456.463 251.422 456.617 251.796C456.771 252.169 457.032 252.488 457.367 252.714C457.702 252.938 458.096 253.058 458.498 253.058C459.039 253.058 459.556 252.842 459.938 252.459C460.32 252.076 460.535 251.556 460.535 251.013Z"
      fill="#8625D2" />
    <path opacity="0.8"
      d="M456.841 216.084C456.837 215.701 456.682 215.335 456.41 215.066C456.139 214.797 455.773 214.646 455.392 214.646C455.012 214.646 454.648 214.798 454.379 215.067C454.11 215.337 453.959 215.703 453.959 216.084C453.959 216.467 454.11 216.835 454.378 217.107C454.646 217.379 455.01 217.535 455.392 217.539C455.775 217.535 456.141 217.38 456.412 217.108C456.683 216.837 456.837 216.468 456.841 216.084Z"
      fill="#8625D2" />
    <path opacity="0.8"
      d="M477.344 274.594C477.344 274.006 477.111 273.442 476.697 273.026C476.283 272.61 475.721 272.376 475.135 272.376C474.549 272.376 473.987 272.61 473.573 273.026C473.159 273.442 472.926 274.006 472.926 274.594C472.926 275.183 473.159 275.747 473.573 276.163C473.987 276.579 474.549 276.812 475.135 276.812C475.721 276.812 476.283 276.579 476.697 276.163C477.111 275.747 477.344 275.183 477.344 274.594Z"
      fill="#8625D2" />
    <path opacity="0.8"
      d="M475.618 267.369C475.622 267.069 475.536 266.776 475.373 266.526C475.209 266.275 474.974 266.079 474.699 265.962C474.425 265.846 474.121 265.815 473.828 265.872C473.536 265.93 473.267 266.074 473.055 266.286C472.844 266.498 472.701 266.768 472.643 267.063C472.586 267.356 472.618 267.661 472.733 267.937C472.849 268.213 473.044 268.449 473.293 268.612C473.543 268.777 473.836 268.863 474.134 268.86C474.33 268.861 474.524 268.825 474.705 268.75C474.886 268.676 475.05 268.567 475.188 268.428C475.327 268.289 475.437 268.124 475.51 267.943C475.584 267.76 475.621 267.565 475.618 267.369Z"
      fill="#8625D2" />
    <path
      d="M444.856 351.325C446.696 351.325 448.188 349.82 448.188 347.963C448.188 346.106 446.696 344.601 444.856 344.601C443.015 344.601 441.523 346.106 441.523 347.963C441.523 349.82 443.015 351.325 444.856 351.325Z"
      fill="#1B181F" />
    <path
      d="M168.279 87.8338C168.279 87.8338 179.525 79.9369 184.524 76.778C189.522 73.6191 196.186 77.3251 196.186 77.3251L238.673 104.155"
      stroke="#8625D2" stroke-width="2" />
    <g opacity="0.4" filter="url(#filter1_d_15_37)">
      <path
        d="M179.812 90.6747V79.1145L177.703 77.9363C177.108 81.5392 172.874 83.9297 169.338 84.4248L145.225 98.6148L134.716 102.44L101.132 84.9543L101.914 84.5105C99.0404 83.2468 97.4418 80.1048 95.9456 77.3045L93.6838 78.6535L92.3401 79.0291V90.794C92.4292 91.6849 92.7491 92.5372 93.269 93.2651C93.788 93.9929 94.4877 94.572 95.2991 94.9435L128.934 114.444C131.15 115.563 133.596 116.147 136.076 116.147C138.557 116.147 141.003 115.563 143.219 114.444L176.854 94.9435C177.653 94.5788 178.346 94.014 178.865 93.3012C179.383 92.5893 179.709 91.7555 179.812 90.8798C179.812 90.8798 179.812 90.7428 179.812 90.6747Z"
        fill="#8625D2" />
    </g>
    <path
      d="M179.812 80.3951V72.7453L177.703 71.5671C177.108 75.1701 172.874 77.5606 169.338 78.0558L145.225 92.2111L134.716 96.0193L101.132 78.6193L101.914 78.1241C99.0404 76.7751 97.4926 73.7015 95.9456 70.8841L93.6838 72.233L92.3401 72.677V80.5147C92.4292 81.4057 92.7491 82.2576 93.269 82.9856C93.788 83.7137 94.4877 84.292 95.2991 84.6643L128.934 104.165C131.15 105.284 133.596 105.867 136.076 105.867C138.557 105.867 141.003 105.284 143.219 104.165L176.854 84.6643C177.656 84.2979 178.35 83.73 178.868 83.0149C179.387 82.2997 179.712 81.4619 179.812 80.583C179.812 80.583 179.812 80.4635 179.812 80.3951Z"
      fill="#1B181F" />
    <path opacity="0.3"
      d="M169.337 78.1241L145.224 92.2111L136.076 95.5243V105.872C138.562 105.923 141.022 105.335 143.218 104.164L176.853 84.6643C177.656 84.2979 178.349 83.73 178.868 83.0149C179.387 82.2997 179.712 81.4619 179.812 80.583C179.812 80.583 179.812 80.4635 179.812 80.3951V72.7453L177.874 71.6696H177.67C177.023 75.2212 172.84 77.5606 169.337 78.1241Z"
      fill="#1B181F" />
    <path
      d="M128.934 96.3774L95.2991 76.8773C91.3537 74.6063 91.3537 70.8838 95.2991 68.5957L128.934 49.0955C131.15 47.9755 133.596 47.3921 136.076 47.3921C138.557 47.3921 141.003 47.9755 143.218 49.0955L176.854 68.5957C180.781 70.8838 180.781 74.6063 176.854 76.8773L143.218 96.3774C141.005 97.5053 138.558 98.0928 136.076 98.0928C133.594 98.0928 131.147 97.5053 128.934 96.3774Z"
      fill="#1E1B22" />
    <path
      d="M176.853 76.8776L143.218 96.3774C141.005 97.5053 138.558 98.0937 136.076 98.0937C133.594 98.0937 131.147 97.5053 128.934 96.3774L95.299 76.8776C94.5584 76.5391 93.9061 76.0331 93.393 75.3992C92.8798 74.7652 92.5191 74.0205 92.34 73.2235C92.3025 74.1995 92.5624 75.1639 93.0847 75.9878C93.6079 76.8116 94.3685 77.4556 95.2649 77.8338L128.934 97.3339C131.147 98.4618 133.594 99.0502 136.076 99.0502C138.558 99.0502 141.005 98.4618 143.218 97.3339L176.853 77.8338C177.751 77.459 178.512 76.8152 179.033 75.9901C179.553 75.1651 179.807 74.199 179.761 73.2235C179.586 74.0151 179.233 74.7559 178.729 75.3893C178.225 76.0227 177.583 76.5318 176.853 76.8776Z"
      fill="#1E1B22" />
    <g filter="url(#filter2_d_15_37)">
      <path
        d="M145.13 72.7478L139.925 75.7796L132.809 74.6667L127.702 77.6409L141.802 79.8284L152.115 73.8223L145.13 72.7478Z"
        fill="#8625D2" />
      <path
        d="M148.557 65.2258L134.456 63.0382L136.334 67.0871L143.45 68.2L145.328 72.3257L152.312 73.4386L148.557 65.2258Z"
        fill="#8625D2" />
      <path d="M139.628 60.0257L144.043 62.5969L142.329 63.5947L135.411 62.4818L139.628 60.0257Z" fill="#8625D2" />
      <path d="M136.564 82.8027L132.15 80.2314L133.83 79.2527L140.749 80.3657L136.564 82.8027Z" fill="#8625D2" />
      <path
        d="M130.437 70.2533L135.642 67.2214L133.764 63.1725L123.485 69.1594L127.241 77.3722L132.347 74.398L130.437 70.2533Z"
        fill="#8625D2" />
    </g>
    <path
      d="M235.978 130.293L257.319 2.48879L255.61 1.72739L258.185 0.226966C258.495 0.0576683 258.846 -0.0195675 259.198 0.00421358C259.549 0.0279947 259.887 0.151814 260.172 0.361326L430.806 99.8142C431.529 100.279 432.116 100.929 432.506 101.699C432.896 102.469 433.075 103.33 433.026 104.192L411.507 232.96C411.483 233.239 411.388 233.506 411.23 233.736C411.073 233.966 410.858 234.15 410.608 234.27L408.089 235.748L407.655 233.363H407.8L238.186 134.66C237.467 134.195 236.884 133.546 236.496 132.778C236.108 132.011 235.929 131.154 235.978 130.293Z"
      fill="#1B181F" />
    <path
      d="M429.864 103.308L432.671 102.054C432.995 102.716 433.123 103.459 433.038 104.192L411.518 232.96C411.495 233.239 411.399 233.506 411.242 233.735C411.084 233.966 410.869 234.15 410.619 234.27L408.089 235.748L407.656 233.363H407.8L399.21 228.369L429.864 103.308Z"
      fill="#1B181F" />
    <path
      d="M235.511 136.217L406.147 235.602C407.467 236.375 408.599 235.927 408.832 234.55L430.351 105.782C430.399 104.92 430.218 104.06 429.828 103.291C429.438 102.522 428.852 101.871 428.132 101.404L257.497 1.97371C256.176 1.20111 255.056 1.649 254.822 3.02624L233.303 131.794C233.243 132.663 233.417 133.533 233.805 134.311C234.194 135.09 234.783 135.748 235.511 136.217Z"
      fill="#1E1B22" />
    <g opacity="0.51">
      <path opacity="0.51" d="M259.728 10.1924L424.203 106.007L403.817 227.317L239.441 131.581L259.728 10.1924Z"
        fill="#131219" />
    </g>
    <path
      d="M128.248 197.196L137.559 202.1L230.939 147.716C231.903 147.272 232.957 147.065 234.016 147.109C235.075 147.154 236.108 147.45 237.031 147.973L398.089 241.783C399.62 240.91 406.656 237.495 406.656 237.495L403.238 246.453C403.057 246.911 402.719 247.288 402.285 247.516L303.931 304.801C302.967 305.242 301.913 305.449 300.855 305.403C299.797 305.359 298.764 305.065 297.839 304.543L133.019 208.55C132.4 208.235 131.912 207.706 131.643 207.061L128.248 197.196Z"
      fill="#1B181F" />
    <path
      d="M129.69 198.797L298.594 297.187C299.543 297.719 300.602 298.019 301.688 298.064C302.773 298.109 303.853 297.896 304.842 297.445L405.625 238.738C407.234 237.798 407.035 236.174 405.181 235.099L236.232 136.653C235.284 136.122 234.224 135.821 233.139 135.776C232.054 135.732 230.973 135.943 229.984 136.396L129.246 195.102C127.637 196.032 127.848 197.678 129.69 198.797Z"
      fill="#1E1B22" />
    <g filter="url(#filter3_d_15_37)">
      <path
        d="M349.534 275.845V273.975C349.534 273.796 349.435 273.718 349.302 273.796L342.765 277.603C342.693 277.656 342.634 277.725 342.594 277.805C342.553 277.884 342.532 277.972 342.531 278.062V279.932C342.531 280.111 342.631 280.189 342.765 280.111L349.302 276.304C349.373 276.252 349.432 276.183 349.473 276.103C349.513 276.023 349.534 275.935 349.534 275.845Z"
        fill="#FF508F" />
    </g>
    <g filter="url(#filter4_d_15_37)">
      <path
        d="M339.768 281.533V279.663C339.768 279.495 339.657 279.406 339.535 279.484L332.998 283.292C332.926 283.344 332.868 283.413 332.827 283.493C332.787 283.572 332.765 283.661 332.765 283.751V285.621C332.765 285.8 332.865 285.878 332.998 285.8L339.535 281.992C339.607 281.939 339.664 281.87 339.705 281.791C339.745 281.711 339.766 281.622 339.768 281.533Z"
        fill="#FF508F" />
    </g>
    <path
      d="M379.399 233.184L239.041 151.445C238.58 151.175 238.058 151.034 237.525 151.034C236.994 151.034 236.471 151.175 236.011 151.445L186.069 180.625C185.913 180.726 185.785 180.865 185.696 181.03C185.607 181.194 185.562 181.378 185.562 181.565C185.562 181.752 185.607 181.936 185.696 182.101C185.785 182.265 185.913 182.404 186.069 182.506L326.362 264.245C326.82 264.514 327.341 264.656 327.87 264.656C328.401 264.656 328.922 264.514 329.38 264.245L379.433 235.132C379.602 235.031 379.742 234.888 379.838 234.715C379.933 234.541 379.983 234.346 379.979 234.148C379.976 233.951 379.92 233.756 379.819 233.588C379.717 233.418 379.572 233.278 379.399 233.184Z"
      fill="#1E1B22" />
    <path
      d="M379.4 235.065L378.889 235.356L239.052 153.896C238.592 153.627 238.069 153.485 237.537 153.485C237.005 153.485 236.483 153.627 236.022 153.896L186.546 182.774L186.046 182.483C185.891 182.381 185.763 182.242 185.674 182.078C185.586 181.914 185.539 181.729 185.539 181.543C185.539 181.355 185.586 181.171 185.674 181.007C185.763 180.843 185.891 180.704 186.046 180.602L235.989 151.422C236.449 151.153 236.972 151.011 237.504 151.011C238.035 151.011 238.559 151.153 239.018 151.422L379.378 233.161C379.54 233.26 379.674 233.398 379.768 233.564C379.861 233.73 379.912 233.916 379.914 234.107C379.916 234.298 379.87 234.486 379.78 234.653C379.69 234.821 379.559 234.963 379.4 235.065Z"
      fill="#1B181F" />
    <path d="M232.205 158.812L354.118 229.836L359.545 226.679L237.62 155.655L232.205 158.812Z" fill="#25242C" />
    <path d="M218.909 166.55L333.265 233.161L338.692 230.015L224.325 163.392L218.909 166.55Z" fill="#25242C" />
    <path d="M210.252 171.6L344.896 250.024L350.311 246.866L215.679 168.442L210.252 171.6Z" fill="#25242C" />
    <path d="M201.595 176.638L336.238 255.063L341.666 251.905L207.022 173.481L201.595 176.638Z" fill="#25242C" />
    <path d="M192.939 181.677L327.582 260.113L333.009 256.956L198.366 178.519L192.939 181.677Z" fill="#25242C" />
    <path d="M361.488 234.125L366.904 237.282L372.33 234.125L366.904 230.967L361.488 234.125Z" fill="#25242C" />
    <path d="M342.365 238.469L353.619 245.019L359.034 241.861L347.78 235.311L342.365 238.469Z" fill="#25242C" />
    <path opacity="0.5"
      d="M233.591 252.969L195.747 230.922C194.27 230.06 194.27 228.682 195.747 227.798L221.627 212.727C222.456 212.302 223.373 212.08 224.302 212.08C225.231 212.08 226.148 212.302 226.976 212.727L264.822 234.774C266.309 235.636 266.309 237.013 264.822 237.887L238.952 252.969C238.121 253.395 237.203 253.616 236.272 253.616C235.34 253.616 234.421 253.395 233.591 252.969Z"
      fill="#25242C" />
    <path
      d="M264.822 236.05L226.976 214.003C226.148 213.578 225.232 213.357 224.302 213.357C223.373 213.357 222.456 213.578 221.627 214.003L195.747 229.03C195.356 229.246 195.033 229.567 194.814 229.959C194.426 229.198 194.725 228.347 195.747 227.72L221.627 212.648C222.456 212.223 223.373 212.002 224.302 212.002C225.232 212.002 226.148 212.223 226.976 212.648L264.822 234.695C265.854 235.289 266.154 236.14 265.754 236.935C265.536 236.554 265.212 236.247 264.822 236.05Z"
      fill="#1B181F" />
    <path
      d="M391.249 106.02C390.83 106.016 390.42 105.896 390.064 105.673C389.485 105.312 389.028 104.783 388.75 104.156C388.472 103.529 388.386 102.832 388.503 102.155C388.553 101.88 388.669 101.621 388.84 101.401C389.011 101.181 389.233 101.007 389.486 100.893C389.791 100.775 390.119 100.73 390.444 100.763C390.77 100.796 391.082 100.905 391.358 101.082C391.948 101.437 392.42 101.962 392.714 102.588C393.009 103.214 393.112 103.914 393.013 104.601C392.957 104.878 392.838 105.138 392.664 105.36C392.491 105.582 392.268 105.76 392.014 105.878C391.773 105.983 391.512 106.031 391.249 106.02ZM390.11 101.288C389.945 101.286 389.78 101.318 389.626 101.383C389.452 101.469 389.3 101.596 389.181 101.751C389.061 101.907 388.979 102.089 388.94 102.282C388.858 102.854 388.948 103.438 389.198 103.959C389.449 104.48 389.848 104.912 390.344 105.2C390.544 105.334 390.773 105.419 391.011 105.449C391.249 105.479 391.491 105.453 391.717 105.373C391.896 105.292 392.053 105.168 392.173 105.011C392.292 104.855 392.372 104.67 392.404 104.474C392.485 103.903 392.397 103.321 392.15 102.801C391.902 102.281 391.507 101.847 391.015 101.556C390.74 101.392 390.429 101.299 390.11 101.288Z"
      fill="#FF508F" />
    <path
      d="M397.709 109.775C397.291 109.763 396.882 109.644 396.523 109.428C395.949 109.061 395.495 108.533 395.218 107.906C394.94 107.281 394.852 106.586 394.963 105.909C395.013 105.635 395.128 105.376 395.3 105.155C395.471 104.935 395.693 104.761 395.946 104.648C396.251 104.528 396.579 104.482 396.904 104.516C397.23 104.549 397.543 104.659 397.818 104.837C398.41 105.189 398.884 105.712 399.179 106.339C399.474 106.967 399.576 107.669 399.471 108.355C399.417 108.633 399.297 108.892 399.124 109.115C398.95 109.337 398.728 109.514 398.473 109.633C398.232 109.738 397.971 109.786 397.709 109.775ZM396.57 105.042C396.29 105.035 396.018 105.134 395.805 105.317C395.592 105.5 395.454 105.756 395.415 106.036C395.33 106.607 395.416 107.191 395.664 107.712C395.912 108.233 396.309 108.665 396.804 108.955C397.004 109.088 397.232 109.173 397.47 109.203C397.709 109.234 397.95 109.207 398.177 109.128C398.355 109.046 398.511 108.921 398.63 108.765C398.75 108.607 398.83 108.424 398.863 108.228C398.945 107.658 398.857 107.075 398.609 106.556C398.362 106.035 397.967 105.602 397.475 105.31C397.191 105.141 396.868 105.049 396.538 105.042H396.57Z"
      fill="#FF508F" />
    <path
      d="M405.51 112.047C405.451 112.303 405.329 112.541 405.157 112.738C404.984 112.935 404.765 113.085 404.52 113.175C404.274 113.264 404.011 113.29 403.753 113.249C403.496 113.21 403.252 113.105 403.045 112.945C402.504 112.637 402.066 112.171 401.788 111.609C401.51 111.047 401.404 110.414 401.485 109.791C401.535 109.529 401.651 109.284 401.82 109.079C401.99 108.875 402.208 108.717 402.454 108.62C402.7 108.524 402.967 108.493 403.229 108.529C403.49 108.565 403.738 108.669 403.95 108.828C404.502 109.141 404.947 109.617 405.225 110.192C405.504 110.767 405.604 111.413 405.51 112.047Z"
      fill="#FF508F" />
    <g filter="url(#filter5_d_15_37)">
      <path d="M282.235 40.3162L278.803 38.3128L279.068 36.7037L282.5 38.7071L282.235 40.3162Z" fill="#FF508F" />
    </g>
    <g filter="url(#filter6_d_15_37)">
      <path d="M287.244 43.2347L283.796 41.2312L284.061 39.6221L287.509 41.6256L287.244 43.2347Z" fill="#FF508F" />
    </g>
    <g filter="url(#filter7_d_15_37)">
      <path d="M277.289 37.4293L269.753 33.0281L270.018 31.419L277.554 35.8203L277.289 37.4293Z" fill="#FF508F" />
    </g>
    <path d="M277.633 53.2362L269.426 48.4405L269.738 46.516L277.96 51.3116L277.633 53.2362Z" fill="#8625D2" />
    <path d="M284.654 57.322L280.534 54.9241L280.862 52.9995L284.966 55.4131L284.654 57.322Z" fill="#8625D2" />
    <path d="M279.318 59.1519L275.822 57.1011L276.135 55.1923L279.629 57.2273L279.318 59.1519Z" fill="#8625D2" />
    <path d="M285.184 62.5751L281.065 60.1773L281.393 58.2527L285.496 60.6505L285.184 62.5751Z" fill="#8625D2" />
    <path d="M291.222 71.0306L275.073 61.6129L275.386 59.6882L291.534 69.1218L291.222 71.0306Z" fill="#8625D2" />
    <path d="M277.211 108.749L261.063 99.3157L261.39 97.391L277.538 106.825L277.211 108.749Z" fill="#8625D2" />
    <path d="M283.422 112.362L279.318 109.964L279.629 108.055L283.749 110.453L283.422 112.362Z" fill="#8625D2" />
    <path d="M277.82 68.1595L274.324 66.1088L274.637 64.2L278.147 66.235L277.82 68.1595Z" fill="#8625D2" />
    <path d="M283.686 71.5828L279.583 69.1849L279.895 67.2604L284.014 69.6582L283.686 71.5828Z" fill="#8625D2" />
    <path d="M282.453 75.8106L273.575 70.6205L273.888 68.6959L282.766 73.8859L282.453 75.8106Z" fill="#8625D2" />
    <path d="M288.398 79.2653L284.28 76.8675L284.607 74.9429L288.711 77.3565L288.398 79.2653Z" fill="#8625D2" />
    <path d="M294.374 82.7517L290.255 80.3539L290.583 78.445L294.686 80.8429L294.374 82.7517Z" fill="#8625D2" />
    <path d="M304.017 88.3835L296.231 83.8401L296.558 81.9314L304.328 86.4588L304.017 88.3835Z" fill="#8625D2" />
    <path d="M297.853 94.6779L293.75 92.28L294.062 90.3553L298.166 92.7532L297.853 94.6779Z" fill="#8625D2" />
    <path d="M307.495 100.294L299.725 95.7664L300.038 93.8416L307.808 98.3853L307.495 100.294Z" fill="#8625D2" />
    <path d="M276.197 82.026L272.079 79.6282L272.406 77.7036L276.51 80.1014L276.197 82.026Z" fill="#8625D2" />
    <path d="M282.157 85.5124L278.054 83.1145L278.366 81.1899L282.485 83.5877L282.157 85.5124Z" fill="#8625D2" />
    <path d="M291.8 91.1445L284.03 86.6008L284.341 84.6761L292.127 89.2198L291.8 91.1445Z" fill="#8625D2" />
    <path d="M304.438 93.5735L300.334 91.1756L300.646 89.2509L304.749 91.6488L304.438 93.5735Z" fill="#8625D2" />
    <path d="M310.414 97.0599L306.294 94.662L306.622 92.7372L310.725 95.1352L310.414 97.0599Z" fill="#8625D2" />
    <path d="M320.055 102.691L312.27 98.1483L312.598 96.2236L320.368 100.767L320.055 102.691Z" fill="#8625D2" />
    <path d="M289.865 116.116L285.746 113.718L286.073 111.81L290.177 114.208L289.865 116.116Z" fill="#8625D2" />
    <path d="M299.491 121.748L291.721 117.205L292.034 115.296L299.819 119.824L299.491 121.748Z" fill="#8625D2" />
    <path d="M274.699 91.0336L270.581 88.6356L270.908 86.7109L275.012 89.1088L274.699 91.0336Z" fill="#8625D2" />
    <path d="M284.342 96.6657L276.556 92.122L276.884 90.1973L284.654 94.741L284.342 96.6657Z" fill="#8625D2" />
    <path d="M294.343 123.672L290.223 121.274L290.552 119.351L294.654 121.764L294.343 123.672Z" fill="#8625D2" />
    <path d="M303.969 129.304L296.199 124.761L296.511 122.837L304.297 127.38L303.969 129.304Z" fill="#8625D2" />
    <path d="M303.502 78.2083L299.398 75.8105L299.71 73.8859L303.813 76.2838L303.502 78.2083Z" fill="#8625D2" />
    <path d="M297.292 74.5801L293.173 72.1822L293.5 70.2576L297.604 72.6555L297.292 74.5801Z" fill="#8625D2" />
    <path d="M313.144 83.8401L305.374 79.2969L305.686 77.3723L313.456 81.9156L313.144 83.8401Z" fill="#8625D2" />
    <path d="M276.54 77.2935L272.827 75.1164L273.139 73.2077L276.853 75.3688L276.54 77.2935Z" fill="#8625D2" />
    <path d="M287.524 83.714L278.522 78.445L278.834 76.5205L287.853 81.7893L287.524 83.714Z" fill="#8625D2" />
    <path d="M298.524 90.1191L289.506 84.8652L289.834 82.941L298.851 88.2095L298.524 90.1191Z" fill="#8625D2" />
    <path d="M318.854 87.169L315.141 85.0072L315.469 83.0829L319.166 85.2443L318.854 87.169Z" fill="#8625D2" />
    <path d="M329.854 93.5895L320.835 88.3364L321.163 86.4117L330.165 91.6648L329.854 93.5895Z" fill="#8625D2" />
    <path d="M340.838 100.01L331.836 94.741L332.147 92.8322L341.165 98.0853L340.838 100.01Z" fill="#8625D2" />
    <path d="M280.426 89.44L271.407 84.1718L271.734 82.2626L280.737 87.5161L280.426 89.44Z" fill="#8625D2" />
    <path d="M285.184 92.217L282.407 90.5923L282.719 88.6835L285.497 90.2922L285.184 92.217Z" fill="#8625D2" />
    <path d="M289.943 94.9931L287.165 93.3684L287.494 91.4597L290.255 93.0684L289.943 94.9931Z" fill="#8625D2" />
    <path d="M298.742 100.136L291.925 96.1605L292.252 94.2358L299.055 98.2113L298.742 100.136Z" fill="#8625D2" />
    <path d="M308.603 91.0655L305.842 89.456L306.154 87.5312L308.931 89.1408L308.603 91.0655Z" fill="#8625D2" />
    <path d="M317.403 96.2076L310.6 92.2329L310.912 90.3082L317.73 94.2837L317.403 96.2076Z" fill="#8625D2" />
    <path d="M319.26 97.2809L312.442 93.3054L312.77 91.3967L319.572 95.3722L319.26 97.2809Z" fill="#8625D2" />
    <path d="M283 122.001L274.122 116.827L274.449 114.902L283.327 120.076L283 122.001Z" fill="#8625D2" />
    <path d="M288.944 125.471L284.841 123.073L285.153 121.148L289.272 123.546L288.944 125.471Z" fill="#8625D2" />
    <path d="M294.92 128.957L290.817 126.559L291.129 124.635L295.248 127.033L294.92 128.957Z" fill="#8625D2" />
    <path d="M304.562 134.589L296.792 130.046L297.105 128.121L304.875 132.665L304.562 134.589Z" fill="#8625D2" />
    <path d="M310.725 138.186L306.622 135.788L306.934 133.863L311.053 136.261L310.725 138.186Z" fill="#8625D2" />
    <path d="M320.368 143.818L312.598 139.274L312.909 137.35L320.695 141.893L320.368 143.818Z" fill="#8625D2" />
    <path d="M290.801 136.435L286.682 134.037L287.01 132.113L291.113 134.51L290.801 136.435Z" fill="#8625D2" />
    <path d="M300.444 142.066L292.658 137.524L292.985 135.599L300.755 140.142L300.444 142.066Z" fill="#8625D2" />
    <path d="M269.332 123.909L265.229 121.495L265.541 119.587L269.644 121.985L269.332 123.909Z" fill="#8625D2" />
    <path d="M275.307 127.396L271.189 124.982L271.516 123.073L275.62 125.471L275.307 127.396Z" fill="#8625D2" />
    <path d="M284.95 133.012L277.164 128.484L277.492 126.559L285.262 131.103L284.95 133.012Z" fill="#8625D2" />
    <path d="M277.087 123.483L273.373 121.322L273.7 119.398L277.414 121.574L277.087 123.483Z" fill="#8625D2" />
    <path d="M288.086 129.904L279.068 124.651L279.395 122.726L288.398 127.995L288.086 129.904Z" fill="#8625D2" />
    <path d="M299.086 136.324L290.068 131.071L290.38 129.146L299.398 134.4L299.086 136.324Z" fill="#8625D2" />
    <path d="M266.305 127.065L257.287 121.811L257.599 119.887L266.617 125.156L266.305 127.065Z" fill="#8625D2" />
    <path d="M271.048 129.841L268.286 128.232L268.599 126.307L271.376 127.916L271.048 129.841Z" fill="#8625D2" />
    <path d="M275.807 132.617L273.046 131.008L273.357 129.083L276.135 130.708L275.807 132.617Z" fill="#8625D2" />
    <path d="M284.607 137.76L277.804 133.784L278.116 131.86L284.934 135.835L284.607 137.76Z" fill="#8625D2" />
    <path d="M286.464 138.848L279.661 134.873L279.973 132.949L286.776 136.924L286.464 138.848Z" fill="#8625D2" />
    <path d="M270.362 109.68L267.585 108.071L267.912 106.146L270.674 107.755L270.362 109.68Z" fill="#8625D2" />
    <path d="M279.161 114.823L272.344 110.847L272.671 108.923L279.474 112.898L279.161 114.823Z" fill="#8625D2" />
    <path d="M288.148 120.076L281.345 116.084L281.658 114.176L288.476 118.151L288.148 120.076Z" fill="#8625D2" />
    <path d="M322.801 150.175L318.698 147.778L319.01 145.853L323.13 148.251L322.801 150.175Z" fill="#8625D2" />
    <path d="M332.444 155.807L324.674 151.264L324.985 149.339L332.771 153.882L332.444 155.807Z" fill="#8625D2" />
    <path d="M307.636 141.325L300.833 137.35L301.146 135.425L307.948 139.4L307.636 141.325Z" fill="#8625D2" />
    <path d="M316.623 146.578L309.82 142.588L310.132 140.678L316.95 144.654L316.623 146.578Z" fill="#8625D2" />
    <path d="M265.541 90.6394L262.779 89.0147L263.091 87.09L265.868 88.7147L265.541 90.6394Z" fill="#8625D2" />
    <path d="M274.34 95.7664L267.537 91.7908L267.85 89.8821L274.668 93.8576L274.34 95.7664Z" fill="#8625D2" />
    <path d="M283.343 101.019L276.525 97.0439L276.853 95.1192L283.655 99.0947L283.343 101.019Z" fill="#8625D2" />
    <path
      d="M388.472 151.011C388 151.003 387.538 150.872 387.13 150.633L349.466 128.642C348.654 128.085 348.015 127.31 347.617 126.403C347.22 125.497 347.082 124.496 347.219 123.515L349.622 108.986C349.67 108.541 349.825 108.115 350.072 107.744C350.32 107.373 350.652 107.068 351.042 106.857C351.4 106.698 351.792 106.633 352.181 106.666C352.571 106.699 352.945 106.83 353.273 107.046L390.937 129.02C391.75 129.576 392.391 130.351 392.788 131.258C393.186 132.165 393.322 133.166 393.184 134.147L390.781 148.676C390.732 149.123 390.578 149.552 390.331 149.925C390.084 150.298 389.751 150.606 389.361 150.822C389.081 150.948 388.778 151.013 388.472 151.011ZM351.947 107.298C351.731 107.296 351.517 107.345 351.323 107.44C351.028 107.61 350.777 107.849 350.593 108.138C350.408 108.426 350.295 108.754 350.261 109.097L347.859 123.625C347.737 124.474 347.853 125.34 348.192 126.126C348.531 126.912 349.08 127.587 349.778 128.074L387.458 150.065C387.688 150.213 387.948 150.305 388.219 150.333C388.491 150.36 388.764 150.322 389.018 150.223C389.303 150.061 389.545 149.834 389.727 149.56C389.909 149.286 390.024 148.973 390.063 148.645L392.466 134.1C392.589 133.251 392.475 132.385 392.135 131.598C391.796 130.812 391.246 130.137 390.547 129.652L352.945 107.613C352.646 107.419 352.302 107.31 351.947 107.298Z"
      fill="#FF508F" />
    <path
      d="M384.322 175.984C383.855 175.976 383.397 175.846 382.996 175.605L345.316 153.614C344.509 153.055 343.874 152.278 343.482 151.372C343.091 150.465 342.958 149.465 343.101 148.487L345.487 133.958C345.536 133.514 345.691 133.088 345.938 132.716C346.185 132.345 346.518 132.04 346.908 131.828C347.265 131.67 347.656 131.604 348.044 131.634C348.433 131.665 348.809 131.791 349.139 132.002L386.787 153.993C387.613 154.554 388.264 155.343 388.664 156.264C389.065 157.186 389.198 158.203 389.05 159.198L386.631 173.649C386.588 174.095 386.438 174.524 386.193 174.898C385.948 175.272 385.617 175.579 385.227 175.794C384.942 175.921 384.633 175.984 384.322 175.984ZM347.781 132.271C347.565 132.27 347.352 132.318 347.157 132.412C346.874 132.576 346.632 132.803 346.451 133.077C346.27 133.351 346.153 133.663 346.111 133.989L343.693 148.519C343.575 149.369 343.694 150.235 344.036 151.021C344.378 151.807 344.929 152.48 345.628 152.968L383.308 174.973C383.537 175.122 383.798 175.214 384.069 175.241C384.341 175.269 384.614 175.231 384.868 175.131C385.154 174.971 385.4 174.745 385.584 174.471C385.768 174.197 385.887 173.882 385.929 173.554L388.348 159.009C388.469 158.159 388.352 157.291 388.01 156.504C387.668 155.719 387.115 155.045 386.412 154.56L348.811 132.57C348.498 132.384 348.144 132.281 347.781 132.271Z"
      fill="#FF508F" />
    <path style="mix-blend-mode:lighten" opacity="0.5"
      d="M352.883 127.017C353.539 127.412 354.131 127.27 354.365 126.654L358.703 114.523C359.202 113.135 361.261 114.397 361.683 116.353L364.398 128.563C364.61 129.474 365.171 130.263 365.958 130.756L366.613 131.134C367.238 131.497 367.799 131.386 368.048 130.866L368.938 128.941C369.499 127.759 371.34 128.941 371.855 130.708C372.082 131.545 372.603 132.269 373.322 132.744L373.884 133.059C374.57 133.469 375.163 133.296 375.444 132.665L376.256 130.125C376.708 128.689 378.767 129.888 379.235 131.86L381.95 143.155C382.167 144.056 382.728 144.833 383.511 145.317L352.883 127.017Z"
      fill="url(#paint2_linear_15_37)" />
    <path
      d="M378.596 170.241C377.75 169.705 377.145 168.856 376.91 167.875L374.211 156.58C374.126 156.086 373.905 155.625 373.575 155.252C373.243 154.878 372.815 154.606 372.339 154.466C372.223 154.46 372.109 154.496 372.017 154.569C371.925 154.641 371.862 154.745 371.839 154.86L371.028 157.4C370.98 157.574 370.892 157.733 370.773 157.867C370.655 158 370.507 158.106 370.342 158.173C370.127 158.236 369.903 158.252 369.682 158.219C369.461 158.186 369.25 158.106 369.063 157.984L368.501 157.621C367.727 157.099 367.172 156.307 366.94 155.397C366.845 154.931 366.629 154.501 366.313 154.148C365.998 153.796 365.595 153.535 365.147 153.393C365.041 153.373 364.933 153.392 364.84 153.447C364.748 153.502 364.679 153.59 364.647 153.693L363.742 155.602C363.681 155.747 363.59 155.878 363.474 155.984C363.358 156.09 363.221 156.17 363.071 156.217C362.863 156.283 362.643 156.303 362.427 156.272C362.212 156.243 362.005 156.164 361.823 156.044L361.168 155.665C360.326 155.117 359.732 154.255 359.513 153.267L356.783 141.057C356.518 139.874 355.582 138.943 354.927 138.911C354.677 138.911 354.521 139.006 354.412 139.274L350.027 151.405C349.974 151.571 349.884 151.721 349.766 151.846C349.647 151.973 349.502 152.069 349.341 152.131C349.13 152.198 348.907 152.215 348.688 152.183C348.469 152.15 348.26 152.067 348.077 151.942L348.405 151.311C348.507 151.387 348.624 151.439 348.748 151.463C348.872 151.488 349 151.484 349.123 151.453C349.193 151.424 349.257 151.378 349.308 151.321C349.359 151.264 349.397 151.196 349.419 151.122L353.804 138.99C353.884 138.748 354.04 138.539 354.248 138.394C354.457 138.249 354.705 138.176 354.958 138.186C355.579 138.34 356.142 138.674 356.577 139.148C357.013 139.622 357.301 140.214 357.407 140.852L360.122 153.062C360.302 153.874 360.781 154.585 361.464 155.05L362.119 155.413C362.217 155.486 362.328 155.537 362.447 155.565C362.564 155.592 362.687 155.593 362.806 155.57C362.875 155.55 362.937 155.515 362.989 155.466C363.041 155.416 363.08 155.355 363.102 155.287L363.992 153.378C364.084 153.156 364.245 152.97 364.45 152.847C364.655 152.726 364.894 152.673 365.131 152.7C365.715 152.853 366.245 153.168 366.664 153.607C367.082 154.048 367.373 154.596 367.503 155.192C367.712 155.943 368.183 156.593 368.829 157.021L369.39 157.352C369.49 157.431 369.608 157.485 369.733 157.51C369.857 157.535 369.986 157.53 370.108 157.495C370.184 157.463 370.252 157.414 370.307 157.351C370.361 157.288 370.399 157.213 370.42 157.132L371.185 154.655C371.254 154.406 371.403 154.186 371.61 154.032C371.816 153.878 372.067 153.797 372.323 153.803C372.941 153.952 373.503 154.278 373.94 154.743C374.378 155.208 374.673 155.791 374.788 156.422L377.503 167.717C377.61 168.124 377.796 168.506 378.051 168.839C378.305 169.172 378.623 169.451 378.985 169.657L378.596 170.241Z"
      fill="#FF508F" />
    <g filter="url(#filter8_d_15_37)">
      <path d="M187.856 294.172L182.441 297.534" stroke="#FF508F" stroke-width="4" stroke-linecap="round"
        stroke-linejoin="round" />
    </g>
    <path
      d="M242.421 296.693C243.342 296.693 244.088 295.941 244.088 295.012C244.088 294.084 243.342 293.331 242.421 293.331C241.501 293.331 240.755 294.084 240.755 295.012C240.755 295.941 241.501 296.693 242.421 296.693Z"
      fill="#8625D2" />
  </g>
  <defs>
    <filter id="filter0_d_15_37" x="240.087" y="351.107" width="15.9146" height="12.6234" filterUnits="userSpaceOnUse"
      color-interpolation-filters="sRGB">
      <feFlood flood-opacity="0" result="BackgroundImageFix" />
      <feColorMatrix in="SourceAlpha" type="matrix" values="0 0 0 0 0 0 0 0 0 0 0 0 0 0 0 0 0 0 127 0"
        result="hardAlpha" />
      <feOffset />
      <feGaussianBlur stdDeviation="1" />
      <feColorMatrix type="matrix" values="0 0 0 0 1 0 0 0 0 0.313726 0 0 0 0 0.560784 0 0 0 1 0" />
      <feBlend mode="normal" in2="BackgroundImageFix" result="effect1_dropShadow_15_37" />
      <feBlend mode="normal" in="SourceGraphic" in2="effect1_dropShadow_15_37" result="shape" />
    </filter>
    <filter id="filter1_d_15_37" x="72.3401" y="57.3045" width="127.472" height="78.8421" filterUnits="userSpaceOnUse"
      color-interpolation-filters="sRGB">
      <feFlood flood-opacity="0" result="BackgroundImageFix" />
      <feColorMatrix in="SourceAlpha" type="matrix" values="0 0 0 0 0 0 0 0 0 0 0 0 0 0 0 0 0 0 127 0"
        result="hardAlpha" />
      <feOffset />
      <feGaussianBlur stdDeviation="10" />
      <feColorMatrix type="matrix" values="0 0 0 0 0.52549 0 0 0 0 0.145098 0 0 0 0 0.823529 0 0 0 1 0" />
      <feBlend mode="normal" in2="BackgroundImageFix" result="effect1_dropShadow_15_37" />
      <feBlend mode="normal" in="SourceGraphic" in2="effect1_dropShadow_15_37" result="shape" />
    </filter>
    <filter id="filter2_d_15_37" x="103.485" y="40.0257" width="68.8274" height="62.7771" filterUnits="userSpaceOnUse"
      color-interpolation-filters="sRGB">
      <feFlood flood-opacity="0" result="BackgroundImageFix" />
      <feColorMatrix in="SourceAlpha" type="matrix" values="0 0 0 0 0 0 0 0 0 0 0 0 0 0 0 0 0 0 127 0"
        result="hardAlpha" />
      <feOffset />
      <feGaussianBlur stdDeviation="10" />
      <feColorMatrix type="matrix" values="0 0 0 0 0.52549 0 0 0 0 0.145098 0 0 0 0 0.823529 0 0 0 0.4 0" />
      <feBlend mode="normal" in2="BackgroundImageFix" result="effect1_dropShadow_15_37" />
      <feBlend mode="normal" in="SourceGraphic" in2="effect1_dropShadow_15_37" result="shape" />
    </filter>
    <filter id="filter3_d_15_37" x="322.531" y="253.766" width="47.0027" height="46.3759" filterUnits="userSpaceOnUse"
      color-interpolation-filters="sRGB">
      <feFlood flood-opacity="0" result="BackgroundImageFix" />
      <feColorMatrix in="SourceAlpha" type="matrix" values="0 0 0 0 0 0 0 0 0 0 0 0 0 0 0 0 0 0 127 0"
        result="hardAlpha" />
      <feOffset />
      <feGaussianBlur stdDeviation="10" />
      <feColorMatrix type="matrix" values="0 0 0 0 1 0 0 0 0 0.313726 0 0 0 0 0.556863 0 0 0 1 0" />
      <feBlend mode="normal" in2="BackgroundImageFix" result="effect1_dropShadow_15_37" />
      <feBlend mode="normal" in="SourceGraphic" in2="effect1_dropShadow_15_37" result="shape" />
    </filter>
    <filter id="filter4_d_15_37" x="312.765" y="259.456" width="47.0027" height="46.3743" filterUnits="userSpaceOnUse"
      color-interpolation-filters="sRGB">
      <feFlood flood-opacity="0" result="BackgroundImageFix" />
      <feColorMatrix in="SourceAlpha" type="matrix" values="0 0 0 0 0 0 0 0 0 0 0 0 0 0 0 0 0 0 127 0"
        result="hardAlpha" />
      <feOffset />
      <feGaussianBlur stdDeviation="10" />
      <feColorMatrix type="matrix" values="0 0 0 0 1 0 0 0 0 0.313726 0 0 0 0 0.556863 0 0 0 1 0" />
      <feBlend mode="normal" in2="BackgroundImageFix" result="effect1_dropShadow_15_37" />
      <feBlend mode="normal" in="SourceGraphic" in2="effect1_dropShadow_15_37" result="shape" />
    </filter>
    <filter id="filter5_d_15_37" x="258.803" y="20.7037" width="43.697" height="43.6125" filterUnits="userSpaceOnUse"
      color-interpolation-filters="sRGB">
      <feFlood flood-opacity="0" result="BackgroundImageFix" />
      <feColorMatrix in="SourceAlpha" type="matrix" values="0 0 0 0 0 0 0 0 0 0 0 0 0 0 0 0 0 0 127 0"
        result="hardAlpha" />
      <feOffset dy="4" />
      <feGaussianBlur stdDeviation="10" />
      <feColorMatrix type="matrix" values="0 0 0 0 0.996078 0 0 0 0 0.313726 0 0 0 0 0.556863 0 0 0 0.5 0" />
      <feBlend mode="normal" in2="BackgroundImageFix" result="effect1_dropShadow_15_37" />
      <feBlend mode="normal" in="SourceGraphic" in2="effect1_dropShadow_15_37" result="shape" />
    </filter>
    <filter id="filter6_d_15_37" x="263.796" y="23.6221" width="43.7139" height="43.6126" filterUnits="userSpaceOnUse"
      color-interpolation-filters="sRGB">
      <feFlood flood-opacity="0" result="BackgroundImageFix" />
      <feColorMatrix in="SourceAlpha" type="matrix" values="0 0 0 0 0 0 0 0 0 0 0 0 0 0 0 0 0 0 127 0"
        result="hardAlpha" />
      <feOffset dy="4" />
      <feGaussianBlur stdDeviation="10" />
      <feColorMatrix type="matrix" values="0 0 0 0 0.996078 0 0 0 0 0.313726 0 0 0 0 0.556863 0 0 0 0.5 0" />
      <feBlend mode="normal" in2="BackgroundImageFix" result="effect1_dropShadow_15_37" />
      <feBlend mode="normal" in="SourceGraphic" in2="effect1_dropShadow_15_37" result="shape" />
    </filter>
    <filter id="filter7_d_15_37" x="249.753" y="15.419" width="47.8008" height="46.0103" filterUnits="userSpaceOnUse"
      color-interpolation-filters="sRGB">
      <feFlood flood-opacity="0" result="BackgroundImageFix" />
      <feColorMatrix in="SourceAlpha" type="matrix" values="0 0 0 0 0 0 0 0 0 0 0 0 0 0 0 0 0 0 127 0"
        result="hardAlpha" />
      <feOffset dy="4" />
      <feGaussianBlur stdDeviation="10" />
      <feColorMatrix type="matrix" values="0 0 0 0 0.996078 0 0 0 0 0.313726 0 0 0 0 0.556863 0 0 0 0.5 0" />
      <feBlend mode="normal" in2="BackgroundImageFix" result="effect1_dropShadow_15_37" />
      <feBlend mode="normal" in="SourceGraphic" in2="effect1_dropShadow_15_37" result="shape" />
    </filter>
    <filter id="filter8_d_15_37" x="178.441" y="290.172" width="13.4155" height="11.3625" filterUnits="userSpaceOnUse"
      color-interpolation-filters="sRGB">
      <feFlood flood-opacity="0" result="BackgroundImageFix" />
      <feColorMatrix in="SourceAlpha" type="matrix" values="0 0 0 0 0 0 0 0 0 0 0 0 0 0 0 0 0 0 127 0"
        result="hardAlpha" />
      <feOffset />
      <feGaussianBlur stdDeviation="1" />
      <feColorMatrix type="matrix" values="0 0 0 0 1 0 0 0 0 0.313726 0 0 0 0 0.560784 0 0 0 1 0" />
      <feBlend mode="normal" in2="BackgroundImageFix" result="effect1_dropShadow_15_37" />
      <feBlend mode="normal" in="SourceGraphic" in2="effect1_dropShadow_15_37" result="shape" />
    </filter>
    <linearGradient id="paint0_linear_15_37" x1="58.4008" y1="139.843" x2="58.4008" y2="274.501"
      gradientUnits="userSpaceOnUse">
      <stop stop-color="#141218" />
      <stop offset="1" stop-color="#8625D2" />
    </linearGradient>
    <linearGradient id="paint1_linear_15_37" x1="468.052" y1="335.486" x2="468.052" y2="186.07"
      gradientUnits="userSpaceOnUse">
      <stop stop-color="#8625D2" />
      <stop offset="1" stop-color="#141318" />
    </linearGradient>
    <linearGradient id="paint2_linear_15_37" x1="355.77" y1="122.789" x2="410.077" y2="145.767"
      gradientUnits="userSpaceOnUse">
      <stop stop-color="#FF508F" />
      <stop offset="1" stop-color="#1C1920" />
    </linearGradient>
    <clipPath id="clip0_15_37">
      <rect width="514" height="411" fill="white" />
    </clipPath>
  </defs>
</svg>